<?xml version="1.0" encoding="UTF-8" standalone="no"?>
<svg
   style="display: block; margin: auto;"
   width="800"
   height="729"
   version="1.1"
   id="svg10"
   sodipodi:docname="i_love_mommy_paths_v1.3.svg"
   inkscape:version="1.4 (86a8ad7, 2024-10-11)"
   xmlns:inkscape="http://www.inkscape.org/namespaces/inkscape"
   xmlns:sodipodi="http://sodipodi.sourceforge.net/DTD/sodipodi-0.dtd"
   xmlns="http://www.w3.org/2000/svg"
   xmlns:svg="http://www.w3.org/2000/svg">
  <defs
     id="defs10" />
  <sodipodi:namedview
     id="namedview10"
     pagecolor="#000000"
     bordercolor="#000000"
     borderopacity="0.25"
     inkscape:showpageshadow="2"
     inkscape:pageopacity="0.0"
     inkscape:pagecheckerboard="0"
     inkscape:deskcolor="#d1d1d1"
     inkscape:zoom="1.1069959"
     inkscape:cx="399.73048"
     inkscape:cy="364.5"
     inkscape:window-width="1920"
     inkscape:window-height="1009"
     inkscape:window-x="1912"
     inkscape:window-y="-8"
     inkscape:window-maximized="1"
     inkscape:current-layer="svg10" />
  <path
     d="m 211.2793,225.05127 -9.78516,-4.06494 v -1.66992 l 9.78516,-4.06495 v 2.10206 l -6.84815,2.80517 6.84815,2.79053 z m 10.12207,-2.65869 q 0,1.27441 -1.14258,2.0581 -1.14258,0.77637 -3.12744,0.77637 -1.09864,0 -1.99219,-0.20508 -0.89355,-0.20508 -1.43555,-0.4541 v -2.16797 h 0.2417 q 0.19776,0.13916 0.4541,0.30762 0.26368,0.16113 0.73975,0.35156 0.41016,0.16846 0.93018,0.29297 0.52002,0.11719 1.11328,0.11719 0.77636,0 1.1499,-0.16846 0.37353,-0.17578 0.37353,-0.51269 0,-0.3003 -0.21972,-0.43213 -0.21973,-0.13916 -0.83496,-0.26367 -0.29297,-0.0659 -0.79834,-0.13917 -0.49805,-0.0806 -0.90821,-0.19042 -1.1206,-0.29297 -1.66259,-0.90821 -0.542,-0.62256 -0.542,-1.54541 0,-1.18652 1.12061,-1.97021 1.12793,-0.79102 3.07617,-0.79102 0.92285,0 1.76514,0.19043 0.84961,0.18311 1.32568,0.39551 v 2.08008 h -0.22705 q -0.58594,-0.40283 -1.34033,-0.65186 -0.74707,-0.25635 -1.51611,-0.25635 -0.63721,0 -1.07666,0.17579 -0.43213,0.17578 -0.43213,0.49804 0,0.29297 0.19775,0.44678 0.19775,0.15381 0.93018,0.30762 0.40283,0.0806 0.86425,0.16113 0.46875,0.0732 0.9375,0.19043 1.04004,0.271 1.53809,0.85693 0.49805,0.57862 0.49805,1.4502 z M 231.43555,216.7749 228.26416,225 h -2.98828 l -3.14942,-8.2251 h 2.79053 l 1.9043,5.6543 1.88232,-5.6543 z m 9.46289,7.28028 q 0,1.15722 -0.32959,1.94824 -0.32959,0.79101 -0.92285,1.23779 -0.59327,0.4541 -1.43555,0.65186 -0.83496,0.20507 -1.88965,0.20507 -0.85693,0 -1.69189,-0.10253 -0.82764,-0.10254 -1.43555,-0.24903 v -2.0581 h 0.32226 q 0.4834,0.19043 1.1792,0.34423 0.6958,0.16114 1.24512,0.16114 0.73242,0 1.18652,-0.13916 0.46143,-0.13184 0.70313,-0.38086 0.22705,-0.23438 0.32959,-0.60059 0.10254,-0.36621 0.10254,-0.8789 v -0.15381 q -0.47608,0.38818 -1.05469,0.61523 -0.57861,0.22705 -1.28906,0.22705 -1.72852,0 -2.66602,-1.04004 -0.9375,-1.04004 -0.9375,-3.16406 0,-1.01807 0.28565,-1.75781 0.28564,-0.73975 0.80566,-1.28906 0.4834,-0.5127 1.18653,-0.79834 0.71044,-0.28565 1.45019,-0.28565 0.6665,0 1.2085,0.16113 0.54931,0.15381 0.99609,0.43213 l 0.0952,-0.36621 h 2.55615 z m -2.63672,-1.64795 v -3.72803 q -0.22705,-0.0952 -0.55664,-0.14649 -0.32959,-0.0586 -0.59326,-0.0586 -1.04004,0 -1.56006,0.60059 -0.52002,0.59326 -0.52002,1.66259 0,1.18653 0.43945,1.65528 0.44678,0.46875 1.31836,0.46875 0.39551,0 0.77637,-0.12451 0.38086,-0.12452 0.6958,-0.32959 z M 261.6333,216.7749 259.08447,225 h -2.79785 L 254.60937,219.45557 252.96143,225 h -2.83448 l -2.52685,-8.2251 h 2.76855 l 1.40625,5.66895 1.75781,-5.66895 h 2.33643 l 1.66992,5.66895 1.38428,-5.66895 z M 265.84473,225 h -2.63672 v -8.2251 h 2.63672 z m 0.0732,-9.39697 h -2.7832 v -1.99951 h 2.7832 z M 276.33301,225 h -2.63672 v -0.85693 q -0.68115,0.55664 -1.27442,0.82031 -0.59326,0.26367 -1.36962,0.26367 -1.50147,0 -2.40235,-1.15723 -0.90088,-1.15722 -0.90088,-3.12011 0,-1.04737 0.3003,-1.85303 0.30761,-0.81299 0.83496,-1.3916 0.49804,-0.54932 1.20849,-0.84961 0.71045,-0.30762 1.4209,-0.30762 0.73975,0 1.2085,0.16113 0.47607,0.15381 0.97412,0.39551 v -3.50097 h 2.63672 z m -2.63672,-2.27051 v -4.03564 q -0.27832,-0.11719 -0.58594,-0.16846 -0.30762,-0.0513 -0.56396,-0.0513 -1.04004,0 -1.56006,0.65186 -0.52002,0.64453 -0.52002,1.79443 0,1.2085 0.41748,1.75781 0.41748,0.54199 1.34033,0.54199 0.35889,0 0.76172,-0.13183 0.40283,-0.13916 0.71045,-0.35889 z m 10.38574,2.19727 q -0.4248,0.10986 -0.90088,0.16845 -0.47607,0.0659 -1.16455,0.0659 -1.53808,0 -2.29248,-0.62256 -0.74707,-0.62255 -0.74707,-2.13134 v -3.84522 h -1.08398 v -1.78711 h 1.08398 v -2.35107 h 2.63672 v 2.35107 h 2.46826 v 1.78711 h -2.46826 v 2.91504 q 0,0.43213 0.007,0.7544 0.007,0.32226 0.11719,0.57861 0.10254,0.25635 0.35889,0.41015 0.26367,0.14649 0.76172,0.14649 0.20507,0 0.53466,-0.0879 0.33692,-0.0879 0.46875,-0.16113 h 0.21973 z M 293.91846,225 h -2.65137 v -4.07959 q 0,-0.49805 -0.0513,-0.98877 -0.0513,-0.49805 -0.17578,-0.73242 -0.14649,-0.271 -0.43213,-0.39551 -0.27832,-0.12451 -0.78369,-0.12451 -0.35889,0 -0.73242,0.11719 -0.36621,0.11718 -0.79834,0.37353 V 225 h -2.63672 v -11.39648 h 2.63672 v 4.07959 q 0.70312,-0.54932 1.34765,-0.84229 0.65186,-0.29297 1.44287,-0.29297 1.33301,0 2.08008,0.77637 0.7544,0.77637 0.7544,2.32178 z m 12.36328,-5.79346 h -9.36035 v -1.96289 h 9.36035 z m 0,3.85254 h -9.36035 v -1.96289 h 9.36035 z m 9.41162,-9.45556 -0.43945,4.31396 h -1.65528 l -0.43945,-4.31396 z m -3.83057,0 -0.43945,4.31396 h -1.65527 l -0.43946,-4.31396 z M 326.14502,225 h -7.28027 v -1.9043 h 2.2998 v -5.76416 h -2.2998 v -1.77978 q 0.52734,0 1.01074,-0.0586 0.4834,-0.0659 0.80566,-0.21972 0.38086,-0.18311 0.57129,-0.47608 0.19043,-0.29297 0.21973,-0.73242 h 2.42431 v 9.03076 h 2.24854 z m 11.11816,-3.69141 q 0,0.84961 -0.32226,1.58203 -0.31494,0.7251 -0.92285,1.24512 -0.67383,0.55664 -1.55274,0.82764 -0.87158,0.26367 -1.99219,0.26367 -1.31103,-0.007 -2.21923,-0.2124 -0.90088,-0.19776 -1.47217,-0.44678 v -2.40967 h 0.30762 q 0.6665,0.39551 1.43554,0.65918 0.76905,0.26367 1.53076,0.26367 0.46143,0 0.9961,-0.10253 0.54199,-0.10987 0.85693,-0.38819 0.24902,-0.22705 0.37354,-0.46142 0.13183,-0.23438 0.13183,-0.7251 0,-0.38086 -0.17578,-0.65186 -0.16846,-0.27832 -0.43945,-0.44677 -0.39551,-0.2417 -0.95215,-0.31495 -0.55664,-0.0806 -1.01074,-0.0806 -0.65918,0 -1.26709,0.11719 -0.60059,0.10986 -1.05469,0.21972 h -0.32227 v -6.15234 h 7.75635 v 2.0874 h -5.1123 v 1.77979 q 0.22705,-0.0147 0.57129,-0.022 0.35156,-0.0146 0.61523,-0.0146 0.90088,0 1.604,0.17579 0.71045,0.16845 1.22315,0.47607 0.6665,0.40283 1.04004,1.06934 0.37353,0.65918 0.37353,1.66259 z m 10.8252,-1.76513 q 0,1.37695 -0.24902,2.46826 -0.24903,1.08398 -0.77637,1.77978 -0.54199,0.71045 -1.3916,1.07666 -0.84961,0.35889 -2.09473,0.35889 -1.22314,0 -2.0874,-0.36621 -0.86426,-0.36621 -1.39893,-1.08398 -0.54199,-0.71778 -0.78369,-1.77979 -0.2417,-1.06934 -0.2417,-2.44629 0,-1.4209 0.24902,-2.46826 0.24903,-1.04736 0.79102,-1.77246 0.54199,-0.71777 1.40625,-1.07666 0.86426,-0.35889 2.06543,-0.35889 1.25244,0 2.10205,0.37354 0.84961,0.36621 1.3916,1.09863 0.53467,0.71777 0.77637,1.77246 0.2417,1.04736 0.2417,2.42432 z m -2.83447,0 q 0,-1.97754 -0.38819,-2.8125 -0.38818,-0.84229 -1.28906,-0.84229 -0.90088,0 -1.28906,0.84229 -0.38819,0.83496 -0.38819,2.82715 0,1.94091 0.39551,2.79785 0.39551,0.85693 1.28174,0.85693 0.88623,0 1.28174,-0.85693 0.39551,-0.85694 0.39551,-2.8125 z m 11.24267,-5.93994 -0.43945,4.31396 h -1.65527 l -0.43946,-4.31396 z m -3.83056,0 -0.43946,4.31396 h -1.65527 l -0.43945,-4.31396 z M 372.35352,225 h -2.65137 v -4.07959 q 0,-0.49805 -0.0513,-0.98877 -0.0513,-0.49805 -0.17578,-0.73242 -0.14649,-0.271 -0.43213,-0.39551 -0.27832,-0.12451 -0.78369,-0.12451 -0.35889,0 -0.73242,0.11719 -0.36622,0.11718 -0.79834,0.37353 V 225 h -2.63672 v -11.39648 h 2.63672 v 4.07959 q 0.70312,-0.54932 1.34765,-0.84229 0.65186,-0.29297 1.44287,-0.29297 1.33301,0 2.08008,0.77637 0.7544,0.77637 0.7544,2.32178 z m 10.5249,-3.62549 h -6.03516 q 0.0586,0.9668 0.73242,1.47949 0.68116,0.5127 1.99952,0.5127 0.83496,0 1.61865,-0.30029 0.78369,-0.3003 1.23779,-0.64454 h 0.29297 v 2.1167 q -0.89356,0.35889 -1.68457,0.52002 -0.79102,0.16114 -1.75049,0.16114 -2.47559,0 -3.79394,-1.11328 -1.31836,-1.11329 -1.31836,-3.17139 0,-2.03613 1.24511,-3.22266 1.25244,-1.19385 3.42774,-1.19385 2.00683,0 3.01758,1.01807 1.01074,1.01074 1.01074,2.91504 z m -2.62207,-1.54541 q -0.022,-0.82764 -0.41016,-1.24512 -0.38818,-0.41748 -1.20849,-0.41748 -0.76172,0 -1.25245,0.39551 -0.49072,0.39551 -0.54931,1.26709 z M 387.37549,225 h -2.63672 v -8.2251 h 2.63672 z m 0.0732,-9.39697 h -2.7832 v -1.99951 h 2.7832 z m 10.41504,8.45215 q 0,1.15722 -0.32959,1.94824 -0.32959,0.79101 -0.92285,1.23779 -0.59326,0.4541 -1.43555,0.65186 -0.83496,0.20507 -1.88965,0.20507 -0.85693,0 -1.69189,-0.10253 -0.82764,-0.10254 -1.43555,-0.24903 v -2.0581 h 0.32227 q 0.4834,0.19043 1.1792,0.34423 0.6958,0.16114 1.24511,0.16114 0.73243,0 1.18653,-0.13916 0.46142,-0.13184 0.70312,-0.38086 0.22705,-0.23438 0.32959,-0.60059 0.10254,-0.36621 0.10254,-0.8789 v -0.15381 q -0.47607,0.38818 -1.05469,0.61523 -0.57861,0.22705 -1.28906,0.22705 -1.72851,0 -2.66601,-1.04004 -0.9375,-1.04004 -0.9375,-3.16406 0,-1.01807 0.28564,-1.75781 0.28564,-0.73975 0.80566,-1.28906 0.4834,-0.5127 1.18653,-0.79834 0.71045,-0.28565 1.45019,-0.28565 0.66651,0 1.2085,0.16113 0.54931,0.15381 0.99609,0.43213 l 0.0952,-0.36621 h 2.55615 z m -2.63672,-1.64795 v -3.72803 q -0.22705,-0.0952 -0.55664,-0.14649 -0.32959,-0.0586 -0.59326,-0.0586 -1.04004,0 -1.56006,0.60059 -0.52002,0.59326 -0.52002,1.66259 0,1.18653 0.43945,1.65528 0.44678,0.46875 1.31836,0.46875 0.39551,0 0.77637,-0.12451 0.38086,-0.12452 0.6958,-0.32959 z M 408.61572,225 h -2.65136 v -4.07959 q 0,-0.49805 -0.0513,-0.98877 -0.0513,-0.49805 -0.17579,-0.73242 -0.14648,-0.271 -0.43212,-0.39551 -0.27832,-0.12451 -0.7837,-0.12451 -0.35888,0 -0.73242,0.11719 -0.36621,0.11718 -0.79834,0.37353 V 225 H 400.354 v -11.39648 h 2.63672 v 4.07959 q 0.70313,-0.54932 1.34766,-0.84229 0.65185,-0.29297 1.44287,-0.29297 1.33301,0 2.08008,0.77637 0.75439,0.77637 0.75439,2.32178 z m 7.68311,-0.0732 q -0.42481,0.10986 -0.90088,0.16845 -0.47608,0.0659 -1.16455,0.0659 -1.53809,0 -2.29248,-0.62256 -0.74707,-0.62255 -0.74707,-2.13134 v -3.84522 h -1.08399 v -1.78711 h 1.08399 v -2.35107 h 2.63672 v 2.35107 h 2.46826 v 1.78711 h -2.46826 v 2.91504 q 0,0.43213 0.007,0.7544 0.007,0.32226 0.11719,0.57861 0.10254,0.25635 0.35888,0.41015 0.26368,0.14649 0.76172,0.14649 0.20508,0 0.53467,-0.0879 0.33692,-0.0879 0.46875,-0.16113 h 0.21973 z m 11.51367,-5.72022 h -9.36035 v -1.96289 h 9.36035 z m 0,3.85254 h -9.36035 v -1.96289 h 9.36035 z m 9.41162,-9.45556 -0.43945,4.31396 h -1.65528 l -0.43945,-4.31396 z m -3.83057,0 -0.43945,4.31396 h -1.65527 l -0.43946,-4.31396 z M 447.67578,225 h -7.28027 v -1.9043 h 2.2998 v -5.76416 h -2.2998 v -1.77978 q 0.52734,0 1.01074,-0.0586 0.4834,-0.0659 0.80566,-0.21972 0.38086,-0.18311 0.57129,-0.47608 0.19043,-0.29297 0.21973,-0.73242 h 2.42432 v 9.03076 h 2.24853 z m 10.2832,-5.1123 q 0.35889,0.30761 0.57129,0.71777 0.21241,0.41015 0.21241,1.09131 0,0.76904 -0.30762,1.43554 -0.30029,0.66651 -0.93018,1.14258 -0.61523,0.46143 -1.45019,0.71045 -0.82764,0.2417 -2.01416,0.2417 -1.35498,0 -2.3291,-0.2124 -0.9668,-0.2124 -1.57471,-0.47608 v -2.39502 h 0.28564 q 0.62989,0.38086 1.50147,0.65918 0.8789,0.27832 1.604,0.27832 0.42481,0 0.92285,-0.0659 0.49805,-0.0733 0.84229,-0.30762 0.27099,-0.18311 0.43213,-0.43945 0.16113,-0.26368 0.16113,-0.7544 0,-0.47607 -0.21973,-0.73242 -0.21972,-0.26367 -0.57861,-0.37354 -0.35889,-0.11718 -0.86426,-0.12451 -0.50537,-0.0146 -0.9375,-0.0146 h -0.60058 v -1.94824 h 0.62256 q 0.57128,0 1.01074,-0.0366 0.43945,-0.0366 0.74707,-0.16846 0.32226,-0.13916 0.4834,-0.36621 0.16113,-0.23437 0.16113,-0.68115 0,-0.32959 -0.16846,-0.52734 -0.16845,-0.20508 -0.4248,-0.32227 -0.28565,-0.13183 -0.67383,-0.17578 -0.38818,-0.0439 -0.6665,-0.0439 -0.68848,0 -1.49415,0.24169 -0.80566,0.23438 -1.56005,0.68116 h -0.271 v -2.36573 q 0.60059,-0.2417 1.6333,-0.46142 1.03272,-0.22705 2.09473,-0.22705 1.03271,0 1.80908,0.1831 0.77637,0.17578 1.28174,0.47608 0.60058,0.35888 0.89355,0.87158 0.29297,0.51269 0.29297,1.20117 0,0.9082 -0.56396,1.62598 -0.56397,0.71045 -1.48682,0.9082 v 0.10254 q 0.37354,0.0513 0.79102,0.20508 0.41748,0.15381 0.76171,0.44678 z m 11.49903,1.42089 q 0,0.84961 -0.32227,1.58203 -0.31494,0.7251 -0.92285,1.24512 -0.67383,0.55664 -1.55273,0.82764 -0.87159,0.26367 -1.99219,0.26367 -1.31104,-0.007 -2.21924,-0.2124 -0.90088,-0.19776 -1.47217,-0.44678 v -2.40967 h 0.30762 q 0.6665,0.39551 1.43555,0.65918 0.76904,0.26367 1.53076,0.26367 0.46142,0 0.99609,-0.10253 0.54199,-0.10987 0.85694,-0.38819 0.24902,-0.22705 0.37353,-0.46142 0.13184,-0.23438 0.13184,-0.7251 0,-0.38086 -0.17578,-0.65186 -0.16846,-0.27832 -0.43946,-0.44677 -0.39551,-0.2417 -0.95215,-0.31495 -0.55664,-0.0806 -1.01074,-0.0806 -0.65918,0 -1.26709,0.11719 -0.60058,0.10986 -1.05469,0.21972 h -0.32226 v -6.15234 h 7.75635 v 2.0874 h -5.11231 v 1.77979 q 0.22705,-0.0147 0.57129,-0.022 0.35156,-0.0146 0.61524,-0.0146 0.90087,0 1.604,0.17579 0.71045,0.16845 1.22314,0.47607 0.66651,0.40283 1.04004,1.06934 0.37354,0.65918 0.37354,1.66259 z m 8.56933,-7.70507 -0.43945,4.31396 h -1.65527 l -0.43946,-4.31396 z m -3.83056,0 -0.43946,4.31396 h -1.65527 l -0.43945,-4.31396 z m 16.56738,7.38281 -9.78516,4.06494 v -2.10205 l 6.84815,-2.79785 -6.84815,-2.79785 v -2.10206 l 9.78516,4.06495 z"
     id="text2"
     style="fill:#ffffff"
     aria-label="&lt;svg width=&quot;150&quot; height=&quot;135&quot;&gt;" />
  <path
     d="m 231.2793,250.05127 -9.78516,-4.06494 v -1.66992 l 9.78516,-4.06495 v 2.10206 l -6.84815,2.80517 6.84815,2.79053 z m 11.55761,-4.27734 q 0,1.01806 -0.31494,1.85302 -0.30761,0.83496 -0.81299,1.37696 -0.52734,0.57129 -1.19384,0.86425 -0.66651,0.29297 -1.42823,0.29297 -0.70312,0 -1.19384,-0.15381 -0.49073,-0.14648 -1.00342,-0.41748 v 3.42774 h -2.63672 V 241.7749 h 2.63672 v 0.85694 q 0.60791,-0.4834 1.23779,-0.7837 0.63721,-0.30029 1.46485,-0.30029 1.53808,0 2.38769,1.12793 0.85693,1.12793 0.85693,3.09815 z m -2.71728,0.0513 q 0,-1.20118 -0.41016,-1.74317 -0.41015,-0.54199 -1.29638,-0.54199 -0.37354,0 -0.76905,0.11719 -0.3955,0.10986 -0.75439,0.32226 v 4.13819 q 0.26367,0.10253 0.56396,0.13183 0.3003,0.0293 0.59326,0.0293 1.04737,0 1.56006,-0.60791 0.5127,-0.61524 0.5127,-1.8457 z m 13.02978,0.0659 q 0,2.02881 -1.18652,3.20069 -1.1792,1.16455 -3.31787,1.16455 -2.13867,0 -3.3252,-1.16455 -1.1792,-1.17188 -1.1792,-3.20069 0,-2.04345 1.18653,-3.208 1.19385,-1.16456 3.31787,-1.16456 2.15332,0 3.32519,1.17188 1.1792,1.17187 1.1792,3.20068 z m -3.24462,1.99951 q 0.25634,-0.31494 0.38085,-0.75439 0.13184,-0.44678 0.13184,-1.23047 0,-0.7251 -0.13184,-1.21582 -0.13183,-0.49072 -0.36621,-0.78369 -0.23437,-0.30029 -0.56396,-0.4248 -0.32959,-0.12452 -0.71045,-0.12452 -0.38086,0 -0.68115,0.10254 -0.29297,0.10254 -0.56397,0.41016 -0.2417,0.28564 -0.38818,0.78369 -0.13916,0.49805 -0.13916,1.25244 0,0.67383 0.12451,1.17188 0.12451,0.49072 0.36621,0.79101 0.23438,0.28565 0.55664,0.41748 0.32959,0.13184 0.74707,0.13184 0.35889,0 0.68115,-0.11719 0.32959,-0.12451 0.55665,-0.41016 z M 257.67578,250 h -2.63672 v -11.39648 h 2.63672 z m 6.20361,-2.90771 1.875,-5.31739 h 2.70997 l -4.57032,11.24268 h -2.85644 l 1.30371,-3.07617 -3.20069,-8.16651 h 2.76856 z m 14.04786,1.96289 q 0,1.15722 -0.32959,1.94824 -0.32959,0.79101 -0.92286,1.23779 -0.59326,0.4541 -1.43554,0.65186 -0.83496,0.20507 -1.88965,0.20507 -0.85693,0 -1.6919,-0.10253 -0.82763,-0.10254 -1.43554,-0.24903 v -2.0581 h 0.32226 q 0.4834,0.19043 1.1792,0.34423 0.6958,0.16114 1.24512,0.16114 0.73242,0 1.18652,-0.13916 0.46143,-0.13184 0.70313,-0.38086 0.22705,-0.23438 0.32959,-0.60059 0.10254,-0.36621 0.10254,-0.8789 v -0.15381 q -0.47608,0.38818 -1.05469,0.61523 -0.57861,0.22705 -1.28906,0.22705 -1.72852,0 -2.66602,-1.04004 -0.9375,-1.04004 -0.9375,-3.16406 0,-1.01807 0.28565,-1.75781 0.28564,-0.73975 0.80566,-1.28906 0.4834,-0.5127 1.18652,-0.79834 0.71045,-0.28565 1.4502,-0.28565 0.6665,0 1.2085,0.16113 0.54931,0.15381 0.99609,0.43213 l 0.0952,-0.36621 h 2.55616 z m -2.63672,-1.64795 v -3.72803 q -0.22705,-0.0952 -0.55664,-0.14649 -0.32959,-0.0586 -0.59327,-0.0586 -1.04003,0 -1.56005,0.60059 -0.52002,0.59326 -0.52002,1.66259 0,1.18653 0.43945,1.65528 0.44678,0.46875 1.31836,0.46875 0.39551,0 0.77637,-0.12451 0.38086,-0.12452 0.6958,-0.32959 z m 13.53515,-1.51612 q 0,2.02881 -1.18652,3.20069 -1.1792,1.16455 -3.31787,1.16455 -2.13867,0 -3.3252,-1.16455 -1.1792,-1.17188 -1.1792,-3.20069 0,-2.04345 1.18653,-3.208 1.19385,-1.16456 3.31787,-1.16456 2.15332,0 3.32519,1.17188 1.1792,1.17187 1.1792,3.20068 z m -3.24463,1.99951 q 0.25635,-0.31494 0.38086,-0.75439 0.13184,-0.44678 0.13184,-1.23047 0,-0.7251 -0.13184,-1.21582 -0.13183,-0.49072 -0.36621,-0.78369 -0.23437,-0.30029 -0.56396,-0.4248 -0.32959,-0.12452 -0.71045,-0.12452 -0.38086,0 -0.68115,0.10254 -0.29297,0.10254 -0.56397,0.41016 -0.2417,0.28564 -0.38818,0.78369 -0.13916,0.49805 -0.13916,1.25244 0,0.67383 0.12451,1.17188 0.12451,0.49072 0.36621,0.79101 0.23438,0.28565 0.55664,0.41748 0.32959,0.13184 0.74707,0.13184 0.35889,0 0.68115,-0.11719 0.32959,-0.12451 0.55664,-0.41016 z M 298.97705,250 h -2.65137 v -4.07959 q 0,-0.49805 -0.0513,-0.98877 -0.0513,-0.49805 -0.17578,-0.73242 -0.14648,-0.271 -0.43213,-0.39551 -0.27832,-0.12451 -0.78369,-0.12451 -0.35888,0 -0.73242,0.11719 -0.36621,0.11718 -0.79834,0.37353 V 250 h -2.63672 v -8.2251 h 2.63672 v 0.90821 q 0.70313,-0.54932 1.34766,-0.84229 0.65185,-0.29297 1.44287,-0.29297 1.33301,0 2.08008,0.77637 0.75439,0.77637 0.75439,2.32178 z"
     id="text3"
     style="fill:#ffffff"
     aria-label="&lt;polygon" />
  <path
     d="m 249.8291,270.77393 q 0,1.01806 -0.31494,1.85302 -0.30762,0.83496 -0.81299,1.37696 -0.52734,0.57129 -1.19385,0.86425 -0.6665,0.29297 -1.42822,0.29297 -0.70312,0 -1.19385,-0.15381 -0.49072,-0.14648 -1.00341,-0.41748 v 3.42774 h -2.63672 V 266.7749 h 2.63672 v 0.85694 q 0.60791,-0.4834 1.23779,-0.7837 0.63721,-0.30029 1.46484,-0.30029 1.53809,0 2.3877,1.12793 0.85693,1.12793 0.85693,3.09815 z m -2.71728,0.0513 q 0,-1.20118 -0.41016,-1.74317 -0.41016,-0.54199 -1.29639,-0.54199 -0.37353,0 -0.76904,0.11719 -0.39551,0.10986 -0.75439,0.32226 v 4.13819 q 0.26367,0.10253 0.56396,0.13183 0.30029,0.0293 0.59326,0.0293 1.04737,0 1.56006,-0.60791 0.5127,-0.61524 0.5127,-1.8457 z m 13.02978,0.0659 q 0,2.02881 -1.18652,3.20069 -1.1792,1.16455 -3.31787,1.16455 -2.13867,0 -3.3252,-1.16455 -1.1792,-1.17188 -1.1792,-3.20069 0,-2.04345 1.18653,-3.208 1.19384,-1.16456 3.31787,-1.16456 2.15332,0 3.32519,1.17188 1.1792,1.17187 1.1792,3.20068 z m -3.24463,1.99951 q 0.25635,-0.31494 0.38086,-0.75439 0.13184,-0.44678 0.13184,-1.23047 0,-0.7251 -0.13184,-1.21582 -0.13183,-0.49072 -0.36621,-0.78369 -0.23437,-0.30029 -0.56396,-0.4248 -0.32959,-0.12452 -0.71045,-0.12452 -0.38086,0 -0.68116,0.10254 -0.29296,0.10254 -0.56396,0.41016 -0.2417,0.28564 -0.38818,0.78369 -0.13916,0.49805 -0.13916,1.25244 0,0.67383 0.12451,1.17188 0.12451,0.49072 0.36621,0.79101 0.23437,0.28565 0.55664,0.41748 0.32959,0.13184 0.74707,0.13184 0.35889,0 0.68115,-0.11719 0.32959,-0.12451 0.55664,-0.41016 z m 7.771,2.10938 h -2.63672 v -8.2251 h 2.63672 z m 0.0732,-9.39697 h -2.7832 v -1.99951 h 2.7832 z M 275.41992,275 h -2.65137 v -4.07959 q 0,-0.49805 -0.0513,-0.98877 -0.0513,-0.49805 -0.17579,-0.73242 -0.14648,-0.271 -0.43213,-0.39551 -0.27832,-0.12451 -0.78369,-0.12451 -0.35888,0 -0.73242,0.11719 -0.36621,0.11718 -0.79834,0.37353 V 275 h -2.63672 v -8.2251 h 2.63672 v 0.90821 q 0.70313,-0.54932 1.34766,-0.84229 0.65185,-0.29297 1.44287,-0.29297 1.33301,0 2.08008,0.77637 0.75439,0.77637 0.75439,2.32178 z m 7.68311,-0.0732 q -0.42481,0.10986 -0.90088,0.16845 -0.47608,0.0659 -1.16455,0.0659 -1.53809,0 -2.29248,-0.62256 -0.74707,-0.62255 -0.74707,-2.13134 v -3.84522 h -1.08399 v -1.78711 h 1.08399 v -2.35107 h 2.63672 v 2.35107 h 2.46826 v 1.78711 h -2.46826 v 2.91504 q 0,0.43213 0.007,0.7544 0.007,0.32226 0.11719,0.57861 0.10254,0.25635 0.35888,0.41015 0.26368,0.14649 0.76172,0.14649 0.20508,0 0.53467,-0.0879 0.33691,-0.0879 0.46875,-0.16113 h 0.21973 z m 8.72314,-2.53418 q 0,1.27441 -1.14258,2.0581 -1.14257,0.77637 -3.12744,0.77637 -1.09863,0 -1.99219,-0.20508 -0.89355,-0.20508 -1.43554,-0.4541 v -2.16797 h 0.2417 q 0.19775,0.13916 0.4541,0.30762 0.26367,0.16113 0.73974,0.35156 0.41016,0.16846 0.93018,0.29297 0.52002,0.11719 1.11328,0.11719 0.77637,0 1.1499,-0.16846 0.37354,-0.17578 0.37354,-0.51269 0,-0.3003 -0.21973,-0.43213 -0.21972,-0.13916 -0.83496,-0.26367 -0.29297,-0.0659 -0.79834,-0.13917 -0.49804,-0.0806 -0.9082,-0.19042 -1.12061,-0.29297 -1.6626,-0.90821 -0.54199,-0.62256 -0.54199,-1.54541 0,-1.18652 1.1206,-1.97021 1.12793,-0.79102 3.07618,-0.79102 0.92285,0 1.76513,0.19043 0.84961,0.18311 1.32569,0.39551 v 2.08008 h -0.22705 q -0.58594,-0.40283 -1.34034,-0.65186 -0.74707,-0.25635 -1.51611,-0.25635 -0.63721,0 -1.07666,0.17579 -0.43213,0.17578 -0.43213,0.49804 0,0.29297 0.19776,0.44678 0.19775,0.15381 0.93017,0.30762 0.40283,0.0806 0.86426,0.16113 0.46875,0.0732 0.9375,0.19043 1.04004,0.271 1.53808,0.85693 0.49805,0.57862 0.49805,1.4502 z m 11.68945,-3.18604 h -9.36035 v -1.96289 h 9.36035 z m 0,3.85254 h -9.36035 v -1.96289 h 9.36035 z m 9.41163,-9.45556 -0.43946,4.31396 h -1.65527 l -0.43945,-4.31396 z m -3.83057,0 -0.43945,4.31396 h -1.65528 l -0.43945,-4.31396 z m 14.74365,2.65869 L 318.90381,275 h -3.13477 l 5.12696,-8.81836 h -5.60303 v -2.0874 h 8.54736 z m 10.65674,5.04638 q 0,0.84961 -0.32227,1.58203 -0.31494,0.7251 -0.92285,1.24512 -0.67383,0.55664 -1.55273,0.82764 -0.87158,0.26367 -1.99219,0.26367 -1.31103,-0.007 -2.21924,-0.2124 -0.90088,-0.19776 -1.47217,-0.44678 v -2.40967 h 0.30762 q 0.66651,0.39551 1.43555,0.65918 0.76904,0.26367 1.53076,0.26367 0.46143,0 0.99609,-0.10253 0.542,-0.10987 0.85694,-0.38819 0.24902,-0.22705 0.37353,-0.46142 0.13184,-0.23438 0.13184,-0.7251 0,-0.38086 -0.17578,-0.65186 -0.16846,-0.27832 -0.43946,-0.44677 -0.3955,-0.2417 -0.95214,-0.31495 -0.55664,-0.0806 -1.01075,-0.0806 -0.65918,0 -1.26709,0.11719 -0.60058,0.10986 -1.05468,0.21972 h -0.32227 v -6.15234 h 7.75635 v 2.0874 h -5.11231 v 1.77979 q 0.22705,-0.0147 0.57129,-0.022 0.35157,-0.0147 0.61524,-0.0147 0.90088,0 1.604,0.17579 0.71045,0.16845 1.22315,0.47607 0.6665,0.40283 1.04004,1.06934 0.37353,0.65918 0.37353,1.66259 z m 5.50781,0.81299 -2.63672,5.58838 h -1.6333 l 1.44287,-5.58838 z M 350.12695,275 h -7.28027 v -1.9043 h 2.2998 v -5.76416 h -2.2998 v -1.77978 q 0.52734,0 1.01074,-0.0586 0.4834,-0.0659 0.80567,-0.21972 0.38086,-0.18311 0.57128,-0.47608 0.19043,-0.29297 0.21973,-0.73242 h 2.42432 v 9.03076 h 2.24853 z m 11.35254,0 h -8.56201 v -1.80176 q 0.98145,-0.71045 1.96289,-1.50879 0.98877,-0.79834 1.58203,-1.37695 0.88623,-0.85693 1.25977,-1.49414 0.37353,-0.63721 0.37353,-1.25977 0,-0.74707 -0.4834,-1.1499 -0.47607,-0.41015 -1.37695,-0.41015 -0.67383,0 -1.4209,0.27832 -0.73974,0.27832 -1.37695,0.71044 h -0.23438 v -2.42431 q 0.52002,-0.22705 1.53077,-0.4541 1.01806,-0.22705 2.03613,-0.22705 2.05078,0 3.12744,0.86425 1.07666,0.85694 1.07666,2.43164 0,1.03272 -0.52002,1.96289 -0.51269,0.93018 -1.57471,1.91895 -0.6665,0.61523 -1.34033,1.13525 -0.67383,0.5127 -0.95947,0.71778 h 4.8999 z m 10.42969,-3.69141 q 0,0.84961 -0.32227,1.58203 -0.31494,0.7251 -0.92285,1.24512 -0.67383,0.55664 -1.55273,0.82764 -0.87158,0.26367 -1.99219,0.26367 -1.31103,-0.007 -2.21924,-0.2124 -0.90088,-0.19776 -1.47217,-0.44678 v -2.40967 h 0.30762 q 0.66651,0.39551 1.43555,0.65918 0.76904,0.26367 1.53076,0.26367 0.46143,0 0.99609,-0.10253 0.542,-0.10987 0.85694,-0.38819 0.24902,-0.22705 0.37353,-0.46142 0.13184,-0.23438 0.13184,-0.7251 0,-0.38086 -0.17578,-0.65186 -0.16846,-0.27832 -0.43946,-0.44677 -0.3955,-0.2417 -0.95214,-0.31495 -0.55664,-0.0806 -1.01075,-0.0806 -0.65918,0 -1.26709,0.11719 -0.60058,0.10986 -1.05468,0.21972 h -0.32227 v -6.15234 h 7.75635 v 2.0874 h -5.11231 v 1.77979 q 0.22705,-0.0147 0.57129,-0.022 0.35157,-0.0147 0.61524,-0.0147 0.90088,0 1.604,0.17579 0.71045,0.16845 1.22315,0.47607 0.6665,0.40283 1.04003,1.06934 0.37354,0.65918 0.37354,1.66259 z M 387.24609,275 h -7.28027 v -1.9043 h 2.2998 v -5.76416 h -2.2998 v -1.77978 q 0.52734,0 1.01074,-0.0586 0.4834,-0.0659 0.80567,-0.21972 0.38086,-0.18311 0.57129,-0.47608 0.19043,-0.29297 0.21972,-0.73242 h 2.42432 v 9.03076 h 2.24853 z m 11.35254,0 h -8.56201 v -1.80176 q 0.98145,-0.71045 1.96289,-1.50879 0.98877,-0.79834 1.58203,-1.37695 0.88623,-0.85693 1.25977,-1.49414 0.37353,-0.63721 0.37353,-1.25977 0,-0.74707 -0.48339,-1.1499 -0.47608,-0.41015 -1.37696,-0.41015 -0.67383,0 -1.4209,0.27832 -0.73974,0.27832 -1.37695,0.71044 h -0.23437 v -2.42431 q 0.52002,-0.22705 1.53076,-0.4541 1.01806,-0.22705 2.03613,-0.22705 2.05078,0 3.12744,0.86425 1.07666,0.85694 1.07666,2.43164 0,1.03272 -0.52002,1.96289 -0.51269,0.93018 -1.5747,1.91895 -0.66651,0.61523 -1.34034,1.13525 -0.67383,0.5127 -0.95947,0.71778 h 4.8999 z m 10.42969,-3.69141 q 0,0.84961 -0.32227,1.58203 -0.31494,0.7251 -0.92285,1.24512 -0.67383,0.55664 -1.55273,0.82764 -0.87158,0.26367 -1.99219,0.26367 -1.31103,-0.007 -2.21924,-0.2124 -0.90088,-0.19776 -1.47217,-0.44678 v -2.40967 h 0.30762 q 0.66651,0.39551 1.43555,0.65918 0.76904,0.26367 1.53076,0.26367 0.46143,0 0.99609,-0.10253 0.542,-0.10987 0.85694,-0.38819 0.24902,-0.22705 0.37353,-0.46142 0.13184,-0.23438 0.13184,-0.7251 0,-0.38086 -0.17578,-0.65186 -0.16846,-0.27832 -0.43946,-0.44677 -0.3955,-0.2417 -0.95214,-0.31495 -0.55664,-0.0806 -1.01075,-0.0806 -0.65918,0 -1.26709,0.11719 -0.60058,0.10986 -1.05468,0.21972 h -0.32227 v -6.15234 h 7.75635 v 2.0874 h -5.11231 v 1.77979 q 0.22705,-0.0147 0.57129,-0.022 0.35157,-0.0147 0.61524,-0.0147 0.90088,0 1.604,0.17579 0.71045,0.16845 1.22315,0.47607 0.6665,0.40283 1.04004,1.06934 0.37353,0.65918 0.37353,1.66259 z m 5.50781,0.81299 -2.63672,5.58838 h -1.6333 l 1.44287,-5.58838 z m 10.5835,-5.85937 L 420.18311,275 h -3.13477 l 5.12695,-8.81836 h -5.60302 v -2.0874 h 8.54736 z m 10.65674,5.04638 q 0,0.84961 -0.32227,1.58203 -0.31494,0.7251 -0.92285,1.24512 -0.67383,0.55664 -1.55273,0.82764 -0.87159,0.26367 -1.99219,0.26367 -1.31104,-0.007 -2.21924,-0.2124 -0.90088,-0.19776 -1.47217,-0.44678 v -2.40967 h 0.30762 q 0.6665,0.39551 1.43555,0.65918 0.76904,0.26367 1.53076,0.26367 0.46142,0 0.99609,-0.10253 0.54199,-0.10987 0.85693,-0.38819 0.24903,-0.22705 0.37354,-0.46142 0.13184,-0.23438 0.13184,-0.7251 0,-0.38086 -0.17579,-0.65186 -0.16845,-0.27832 -0.43945,-0.44677 -0.39551,-0.2417 -0.95215,-0.31495 -0.55664,-0.0806 -1.01074,-0.0806 -0.65918,0 -1.26709,0.11719 -0.60058,0.10986 -1.05469,0.21972 h -0.32226 v -6.15234 h 7.75635 v 2.0874 h -5.11231 v 1.77979 q 0.22705,-0.0147 0.57129,-0.022 0.35156,-0.0147 0.61523,-0.0147 0.90088,0 1.60401,0.17579 0.71045,0.16845 1.22314,0.47607 0.66651,0.40283 1.04004,1.06934 0.37354,0.65918 0.37354,1.66259 z M 451.57471,266.26221 446.63818,275 h -3.13476 l 5.12695,-8.81836 h -5.60303 v -2.0874 h 8.54737 z m 10.65674,5.04638 q 0,0.84961 -0.32227,1.58203 -0.31494,0.7251 -0.92285,1.24512 -0.67383,0.55664 -1.55274,0.82764 -0.87158,0.26367 -1.99218,0.26367 -1.31104,-0.007 -2.21924,-0.2124 -0.90088,-0.19776 -1.47217,-0.44678 v -2.40967 h 0.30762 q 0.6665,0.39551 1.43554,0.65918 0.76905,0.26367 1.53077,0.26367 0.46142,0 0.99609,-0.10253 0.54199,-0.10987 0.85693,-0.38819 0.24903,-0.22705 0.37354,-0.46142 0.13183,-0.23438 0.13183,-0.7251 0,-0.38086 -0.17578,-0.65186 -0.16845,-0.27832 -0.43945,-0.44677 -0.39551,-0.2417 -0.95215,-0.31495 -0.55664,-0.0806 -1.01074,-0.0806 -0.65918,0 -1.26709,0.11719 -0.60059,0.10986 -1.05469,0.21972 h -0.32226 v -6.15234 h 7.75634 v 2.0874 h -5.1123 v 1.77979 q 0.22705,-0.0147 0.57129,-0.022 0.35156,-0.0147 0.61523,-0.0147 0.90088,0 1.60401,0.17579 0.71045,0.16845 1.22314,0.47607 0.6665,0.40283 1.04004,1.06934 0.37354,0.65918 0.37354,1.66259 z m 5.50781,0.81299 -2.63672,5.58838 h -1.6333 l 1.44287,-5.58838 z M 478.5498,275 h -8.56201 v -1.80176 q 0.98145,-0.71045 1.96289,-1.50879 0.98877,-0.79834 1.58203,-1.37695 0.88624,-0.85693 1.25977,-1.49414 0.37354,-0.63721 0.37354,-1.25977 0,-0.74707 -0.4834,-1.1499 -0.47608,-0.41015 -1.37696,-0.41015 -0.67382,0 -1.42089,0.27832 -0.73975,0.27832 -1.37696,0.71044 h -0.23437 v -2.42431 q 0.52002,-0.22705 1.53076,-0.4541 1.01807,-0.22705 2.03613,-0.22705 2.05078,0 3.12744,0.86425 1.07666,0.85694 1.07666,2.43164 0,1.03272 -0.52002,1.96289 -0.51269,0.93018 -1.5747,1.91895 -0.66651,0.61523 -1.34034,1.13525 -0.67382,0.5127 -0.95947,0.71778 h 4.8999 z m 10.42969,-3.69141 q 0,0.84961 -0.32226,1.58203 -0.31494,0.7251 -0.92286,1.24512 -0.67382,0.55664 -1.55273,0.82764 -0.87158,0.26367 -1.99219,0.26367 -1.31103,-0.007 -2.21924,-0.2124 -0.90087,-0.19776 -1.47216,-0.44678 v -2.40967 h 0.30761 q 0.66651,0.39551 1.43555,0.65918 0.76904,0.26367 1.53076,0.26367 0.46143,0 0.9961,-0.10253 0.54199,-0.10987 0.85693,-0.38819 0.24902,-0.22705 0.37354,-0.46142 0.13183,-0.23438 0.13183,-0.7251 0,-0.38086 -0.17578,-0.65186 -0.16846,-0.27832 -0.43945,-0.44677 -0.39551,-0.2417 -0.95215,-0.31495 -0.55664,-0.0806 -1.01074,-0.0806 -0.65918,0 -1.26709,0.11719 -0.60059,0.10986 -1.05469,0.21972 h -0.32227 v -6.15234 h 7.75635 v 2.0874 h -5.1123 v 1.77979 q 0.22705,-0.0147 0.57129,-0.022 0.35156,-0.0147 0.61523,-0.0147 0.90088,0 1.604,0.17579 0.71045,0.16845 1.22315,0.47607 0.6665,0.40283 1.04004,1.06934 0.37353,0.65918 0.37353,1.66259 z M 505.00488,275 h -8.56201 v -1.80176 q 0.98145,-0.71045 1.96289,-1.50879 0.98877,-0.79834 1.58203,-1.37695 0.88623,-0.85693 1.25977,-1.49414 0.37353,-0.63721 0.37353,-1.25977 0,-0.74707 -0.48339,-1.1499 -0.47608,-0.41015 -1.37696,-0.41015 -0.67383,0 -1.4209,0.27832 -0.73974,0.27832 -1.37695,0.71044 h -0.23437 v -2.42431 q 0.52002,-0.22705 1.53076,-0.4541 1.01806,-0.22705 2.03613,-0.22705 2.05078,0 3.12744,0.86425 1.07666,0.85694 1.07666,2.43164 0,1.03272 -0.52002,1.96289 -0.51269,0.93018 -1.5747,1.91895 -0.66651,0.61523 -1.34034,1.13525 -0.67383,0.5127 -0.95947,0.71778 h 4.8999 z m 10.42969,-3.69141 q 0,0.84961 -0.32227,1.58203 -0.31494,0.7251 -0.92285,1.24512 -0.67383,0.55664 -1.55273,0.82764 -0.87158,0.26367 -1.99219,0.26367 -1.31103,-0.007 -2.21924,-0.2124 -0.90088,-0.19776 -1.47217,-0.44678 v -2.40967 h 0.30762 q 0.66651,0.39551 1.43555,0.65918 0.76904,0.26367 1.53076,0.26367 0.46143,0 0.99609,-0.10253 0.542,-0.10987 0.85694,-0.38819 0.24902,-0.22705 0.37353,-0.46142 0.13184,-0.23438 0.13184,-0.7251 0,-0.38086 -0.17578,-0.65186 -0.16846,-0.27832 -0.43946,-0.44677 -0.3955,-0.2417 -0.95214,-0.31495 -0.55664,-0.0806 -1.01075,-0.0806 -0.65918,0 -1.26709,0.11719 -0.60058,0.10986 -1.05468,0.21972 h -0.32227 v -6.15234 h 7.75635 v 2.0874 h -5.11231 v 1.77979 q 0.22705,-0.0147 0.57129,-0.022 0.35157,-0.0147 0.61524,-0.0147 0.90088,0 1.604,0.17579 0.71045,0.16845 1.22315,0.47607 0.6665,0.40283 1.04004,1.06934 0.37353,0.65918 0.37353,1.66259 z m 5.50781,0.81299 -2.63672,5.58838 h -1.6333 l 1.44287,-5.58838 z m 10.5835,-5.85937 L 526.58936,275 h -3.13477 l 5.12695,-8.81836 h -5.60302 v -2.0874 h 8.54736 z m 10.65674,5.04638 q 0,0.84961 -0.32227,1.58203 -0.31494,0.7251 -0.92285,1.24512 -0.67383,0.55664 -1.55273,0.82764 -0.87159,0.26367 -1.99219,0.26367 -1.31104,-0.007 -2.21924,-0.2124 -0.90088,-0.19776 -1.47217,-0.44678 v -2.40967 h 0.30762 q 0.6665,0.39551 1.43555,0.65918 0.76904,0.26367 1.53076,0.26367 0.46142,0 0.99609,-0.10253 0.54199,-0.10987 0.85693,-0.38819 0.24903,-0.22705 0.37354,-0.46142 0.13184,-0.23438 0.13184,-0.7251 0,-0.38086 -0.17579,-0.65186 -0.16845,-0.27832 -0.43945,-0.44677 -0.39551,-0.2417 -0.95215,-0.31495 -0.55664,-0.0806 -1.01074,-0.0806 -0.65918,0 -1.26709,0.11719 -0.60058,0.10986 -1.05469,0.21972 h -0.32226 v -6.15234 h 7.75635 v 2.0874 h -5.11231 v 1.77979 q 0.22705,-0.0147 0.57129,-0.022 0.35156,-0.0147 0.61523,-0.0147 0.90088,0 1.60401,0.17579 0.71045,0.16845 1.22314,0.47607 0.66651,0.40283 1.04004,1.06934 0.37354,0.65918 0.37354,1.66259 z m 8.56933,-7.70507 -0.43945,4.31396 h -1.65527 l -0.43946,-4.31396 z m -3.83056,0 -0.43946,4.31396 h -1.65527 l -0.43945,-4.31396 z"
     id="text4"
     style="fill:#ffffff"
     aria-label="points=&quot;75,125 125,75 75,25 25,75&quot;" />
  <path
     d="m 246.57715,290.53711 h -0.19776 q -0.17578,-0.0513 -0.46142,-0.11719 -0.27832,-0.0659 -0.60059,-0.0659 -0.77636,0 -1.05468,0.27832 -0.271,0.27832 -0.271,1.07666 v 0.0659 h 2.03613 v 1.78711 h -1.94824 V 300 h -2.63672 v -6.43799 h -1.12793 v -1.78711 h 1.12793 v -0.22705 q 0,-1.50879 0.79834,-2.26318 0.80566,-0.7544 2.43164,-0.7544 0.58594,0 1.06201,0.044 0.47608,0.0366 0.84229,0.10254 z M 250.21729,300 h -2.63672 v -8.2251 h 2.63672 z m 0.0732,-9.39697 h -2.78321 v -1.99951 h 2.78321 z M 255.34424,300 h -2.63672 v -11.39648 h 2.63672 z m 5.12695,0 h -2.63672 v -11.39648 h 2.63672 z m 12.4292,-5.79346 h -9.36035 v -1.96289 h 9.36035 z m 0,3.85254 h -9.36035 v -1.96289 h 9.36035 z m 9.41162,-9.45556 -0.43945,4.31396 h -1.65527 l -0.43946,-4.31396 z m -3.83056,0 -0.43946,4.31396 h -1.65527 l -0.43945,-4.31396 z m 12.26074,5.68359 h -0.23438 q -0.16845,-0.0586 -0.54199,-0.0879 -0.37353,-0.0293 -0.62256,-0.0293 -0.56396,0 -0.99609,0.0732 -0.43213,0.0733 -0.93018,0.24903 V 300 h -2.63672 v -8.2251 h 2.63672 v 1.2085 q 0.87158,-0.74707 1.51612,-0.98877 0.64453,-0.24902 1.18652,-0.24902 0.13916,0 0.31494,0.007 0.17578,0.007 0.30762,0.022 z m 9.59472,2.0874 h -6.03515 q 0.0586,0.9668 0.73242,1.47949 0.68115,0.5127 1.99951,0.5127 0.83496,0 1.61865,-0.30029 0.7837,-0.3003 1.2378,-0.64454 h 0.29297 v 2.1167 q -0.89356,0.35889 -1.68457,0.52002 -0.79102,0.16114 -1.75049,0.16114 -2.47559,0 -3.79395,-1.11328 -1.31836,-1.11329 -1.31836,-3.17139 0,-2.03613 1.24512,-3.22266 1.25244,-1.19385 3.42773,-1.19385 2.00684,0 3.01758,1.01807 1.01074,1.01074 1.01074,2.91504 z m -2.62207,-1.54541 q -0.022,-0.82764 -0.41015,-1.24512 -0.38819,-0.41748 -1.2085,-0.41748 -0.76172,0 -1.25244,0.39551 -0.49072,0.39551 -0.54932,1.26709 z M 310.19531,300 h -2.63672 v -0.85693 q -0.68115,0.55664 -1.27441,0.82031 -0.59326,0.26367 -1.36963,0.26367 -1.50146,0 -2.40234,-1.15723 -0.90088,-1.15722 -0.90088,-3.12011 0,-1.04737 0.30029,-1.85303 0.30762,-0.81299 0.83496,-1.3916 0.49805,-0.54932 1.2085,-0.84961 0.71045,-0.30762 1.4209,-0.30762 0.73974,0 1.20849,0.16113 0.47608,0.15381 0.97412,0.39551 v -3.50097 h 2.63672 z m -2.63672,-2.27051 v -4.03564 q -0.27832,-0.11719 -0.58593,-0.16846 -0.30762,-0.0513 -0.56397,-0.0513 -1.04004,0 -1.56006,0.65186 -0.52002,0.64453 -0.52002,1.79443 0,1.2085 0.41748,1.75781 0.41748,0.54199 1.34034,0.54199 0.35888,0 0.76171,-0.13183 0.40284,-0.13916 0.71045,-0.35889 z m 11.46973,-9.12597 -0.43945,4.31396 h -1.65528 l -0.43945,-4.31396 z m -3.83057,0 -0.43945,4.31396 h -1.65527 l -0.43946,-4.31396 z m 19.13819,0 -5.80811,13.76953 h -2.24853 l 5.78613,-13.76953 z m 12.89795,7.38281 -9.78516,4.06494 v -2.10205 l 6.84814,-2.79785 -6.84814,-2.79785 v -2.10206 l 9.78516,4.06495 z"
     id="text5"
     style="fill:#ffffff"
     aria-label="fill=&quot;red&quot; /&gt;" />
  <path
     d="m 231.2793,325.05127 -9.78516,-4.06494 v -1.66992 l 9.78516,-4.06495 v 2.10206 l -6.84815,2.80517 6.84815,2.79053 z m 7.2583,0.16846 q -1.07666,0 -1.97022,-0.25635 -0.88623,-0.25635 -1.54541,-0.79102 -0.65185,-0.53466 -1.01074,-1.34765 -0.35889,-0.81299 -0.35889,-1.9043 0,-1.1499 0.38086,-1.98486 0.38819,-0.83496 1.07666,-1.38428 0.66651,-0.52002 1.53809,-0.76172 0.87158,-0.2417 1.80908,-0.2417 0.84229,0 1.55274,0.18311 0.71044,0.1831 1.32568,0.47607 v 2.24854 h -0.37354 q -0.1538,-0.13184 -0.37353,-0.30762 -0.2124,-0.17578 -0.52734,-0.34424 -0.3003,-0.16113 -0.65918,-0.26367 -0.35889,-0.10986 -0.83497,-0.10986 -1.05468,0 -1.62597,0.67382 -0.56397,0.66651 -0.56397,1.81641 0,1.18652 0.57862,1.80176 0.58593,0.61523 1.65527,0.61523 0.49805,0 0.89355,-0.10986 0.40284,-0.11719 0.66651,-0.271 0.24902,-0.14648 0.43945,-0.30761 0.19043,-0.16114 0.35156,-0.31495 h 0.37354 v 2.24854 q -0.62256,0.29297 -1.30371,0.46143 -0.67383,0.17578 -1.49414,0.17578 z M 245.71533,325 h -2.63672 v -8.2251 h 2.63672 z m 0.0732,-9.39697 h -2.7832 v -1.99951 h 2.7832 z m 8.37891,3.68408 h -0.23437 q -0.16846,-0.0586 -0.542,-0.0879 -0.37353,-0.0293 -0.62256,-0.0293 -0.56396,0 -0.99609,0.0732 -0.43213,0.0733 -0.93017,0.24903 V 325 h -2.63672 v -8.2251 h 2.63672 v 1.2085 q 0.87158,-0.74707 1.51611,-0.98877 0.64453,-0.24902 1.18652,-0.24902 0.13916,0 0.31494,0.007 0.17578,0.007 0.30762,0.022 z m 5.77881,5.93262 q -1.07666,0 -1.97022,-0.25635 -0.88623,-0.25635 -1.54541,-0.79102 -0.65185,-0.53466 -1.01074,-1.34765 -0.35888,-0.81299 -0.35888,-1.9043 0,-1.1499 0.38085,-1.98486 0.38819,-0.83496 1.07666,-1.38428 0.66651,-0.52002 1.53809,-0.76172 0.87158,-0.2417 1.80908,-0.2417 0.84229,0 1.55274,0.18311 0.71045,0.1831 1.32568,0.47607 v 2.24854 h -0.37353 q -0.15381,-0.13184 -0.37354,-0.30762 -0.2124,-0.17578 -0.52734,-0.34424 -0.3003,-0.16113 -0.65918,-0.26367 -0.35889,-0.10986 -0.83496,-0.10986 -1.05469,0 -1.62598,0.67382 -0.56397,0.66651 -0.56397,1.81641 0,1.18652 0.57862,1.80176 0.58594,0.61523 1.65527,0.61523 0.49805,0 0.89356,-0.10986 0.40283,-0.11719 0.6665,-0.271 0.24902,-0.14648 0.43945,-0.30761 0.19043,-0.16114 0.35157,-0.31495 h 0.37353 v 2.24854 q -0.62256,0.29297 -1.30371,0.46143 -0.67383,0.17578 -1.49414,0.17578 z M 267.12402,325 h -2.63672 v -11.39648 h 2.63672 z m 10.59082,-3.62549 h -6.03515 q 0.0586,0.9668 0.73242,1.47949 0.68115,0.5127 1.99951,0.5127 0.83496,0 1.61865,-0.30029 0.78369,-0.3003 1.2378,-0.64454 h 0.29297 v 2.1167 q -0.89356,0.35889 -1.68458,0.52002 -0.79101,0.16114 -1.75048,0.16114 -2.47559,0 -3.79395,-1.11328 -1.31836,-1.11329 -1.31836,-3.17139 0,-2.03613 1.24512,-3.22266 1.25244,-1.19385 3.42773,-1.19385 2.00684,0 3.01758,1.01807 1.01074,1.01074 1.01074,2.91504 z m -2.62207,-1.54541 q -0.022,-0.82764 -0.41015,-1.24512 -0.38819,-0.41748 -1.2085,-0.41748 -0.76172,0 -1.25244,0.39551 -0.49072,0.39551 -0.54932,1.26709 z m 13.89405,5.39063 q -1.07666,0 -1.97022,-0.25635 -0.88623,-0.25635 -1.54541,-0.79102 -0.65185,-0.53466 -1.01074,-1.34765 -0.35889,-0.81299 -0.35889,-1.9043 0,-1.1499 0.38086,-1.98486 0.38819,-0.83496 1.07666,-1.38428 0.66651,-0.52002 1.53809,-0.76172 0.87158,-0.2417 1.80908,-0.2417 0.84229,0 1.55273,0.18311 0.71045,0.1831 1.32569,0.47607 v 2.24854 h -0.37354 q -0.15381,-0.13184 -0.37353,-0.30762 -0.2124,-0.17578 -0.52735,-0.34424 -0.30029,-0.16113 -0.65918,-0.26367 -0.35888,-0.10986 -0.83496,-0.10986 -1.05468,0 -1.62597,0.67382 -0.56397,0.66651 -0.56397,1.81641 0,1.18652 0.57862,1.80176 0.58593,0.61523 1.65527,0.61523 0.49805,0 0.89355,-0.10986 0.40284,-0.11719 0.66651,-0.271 0.24902,-0.14648 0.43945,-0.30761 0.19043,-0.16114 0.35156,-0.31495 h 0.37354 v 2.24854 q -0.62256,0.29297 -1.30371,0.46143 -0.67383,0.17578 -1.49414,0.17578 z M 302.12646,325 h -3.07617 L 297.29248,322.53906 295.49072,325 h -3.01758 l 3.24463,-4.10889 -3.19336,-4.11621 h 3.07618 l 1.72851,2.41699 1.73584,-2.41699 h 3.0249 l -3.20068,4.0503 z m 11.37452,-5.79346 h -9.36036 v -1.96289 h 9.36036 z m 0,3.85254 h -9.36036 v -1.96289 h 9.36036 z m 9.41162,-9.45556 -0.43946,4.31396 h -1.65527 l -0.43945,-4.31396 z m -3.83057,0 -0.43945,4.31396 h -1.65528 l -0.43945,-4.31396 z m 14.73633,7.70507 q 0,0.84961 -0.32227,1.58203 -0.31494,0.7251 -0.92285,1.24512 -0.67383,0.55664 -1.55273,0.82764 -0.87158,0.26367 -1.99219,0.26367 -1.31103,-0.007 -2.21924,-0.2124 -0.90088,-0.19776 -1.47217,-0.44678 v -2.40967 h 0.30762 q 0.66651,0.39551 1.43555,0.65918 0.76904,0.26367 1.53076,0.26367 0.46143,0 0.99609,-0.10253 0.542,-0.10987 0.85694,-0.38819 0.24902,-0.22705 0.37353,-0.46142 0.13184,-0.23438 0.13184,-0.7251 0,-0.38086 -0.17578,-0.65186 -0.16846,-0.27832 -0.43946,-0.44677 -0.3955,-0.2417 -0.95214,-0.31495 -0.55665,-0.0806 -1.01075,-0.0806 -0.65918,0 -1.26709,0.11719 -0.60058,0.10986 -1.05468,0.21972 h -0.32227 v -6.15234 h 7.75635 v 2.0874 h -5.11231 v 1.77979 q 0.22705,-0.0147 0.57129,-0.022 0.35156,-0.0147 0.61524,-0.0147 0.90088,0 1.604,0.17579 0.71045,0.16845 1.22315,0.47607 0.6665,0.40283 1.04003,1.06934 0.37354,0.65918 0.37354,1.66259 z m 10.82519,-1.76513 q 0,1.37695 -0.24902,2.46826 -0.24902,1.08398 -0.77637,1.77978 -0.54199,0.71045 -1.3916,1.07666 -0.84961,0.35889 -2.09472,0.35889 -1.22315,0 -2.08741,-0.36621 -0.86425,-0.36621 -1.39892,-1.08398 -0.54199,-0.71778 -0.78369,-1.77979 -0.2417,-1.06934 -0.2417,-2.44629 0,-1.4209 0.24902,-2.46826 0.24902,-1.04736 0.79102,-1.77246 0.54199,-0.71777 1.40625,-1.07666 0.86425,-0.35889 2.06543,-0.35889 1.25244,0 2.10205,0.37354 0.84961,0.36621 1.3916,1.09863 0.53467,0.71777 0.77637,1.77246 0.24169,1.04736 0.24169,2.42432 z m -2.83447,0 q 0,-1.97754 -0.38818,-2.8125 -0.38819,-0.84229 -1.28906,-0.84229 -0.90088,0 -1.28907,0.84229 -0.38818,0.83496 -0.38818,2.82715 0,1.94091 0.39551,2.79785 0.39551,0.85693 1.28174,0.85693 0.88623,0 1.28173,-0.85693 0.39551,-0.85694 0.39551,-2.8125 z m 11.24268,-5.93994 -0.43946,4.31396 h -1.65527 l -0.43945,-4.31396 z m -3.83057,0 -0.43945,4.31396 h -1.65528 l -0.43945,-4.31396 z m 15.71045,11.61621 q -1.07666,0 -1.97021,-0.25635 -0.88623,-0.25635 -1.54541,-0.79102 -0.65186,-0.53466 -1.01075,-1.34765 -0.35888,-0.81299 -0.35888,-1.9043 0,-1.1499 0.38086,-1.98486 0.38818,-0.83496 1.07666,-1.38428 0.6665,-0.52002 1.53808,-0.76172 0.87158,-0.2417 1.80908,-0.2417 0.84229,0 1.55274,0.18311 0.71045,0.1831 1.32568,0.47607 v 2.24854 h -0.37353 q -0.15381,-0.13184 -0.37354,-0.30762 -0.2124,-0.17578 -0.52734,-0.34424 -0.30029,-0.16113 -0.65918,-0.26367 -0.35889,-0.10986 -0.83496,-0.10986 -1.05469,0 -1.62598,0.67382 -0.56396,0.66651 -0.56396,1.81641 0,1.18652 0.57861,1.80176 0.58594,0.61523 1.65527,0.61523 0.49805,0 0.89356,-0.10986 0.40283,-0.11719 0.6665,-0.271 0.24902,-0.14648 0.43945,-0.30761 0.19043,-0.16114 0.35157,-0.31495 h 0.37353 v 2.24854 q -0.62256,0.29297 -1.30371,0.46143 -0.67383,0.17578 -1.49414,0.17578 z m 8.2544,-3.12744 1.875,-5.31739 h 2.70996 l -4.57032,11.24268 h -2.85644 l 1.30371,-3.07617 -3.20068,-8.16651 h 2.76855 z m 15.98876,-2.88575 h -9.36035 v -1.96289 h 9.36035 z m 0,3.85254 h -9.36035 v -1.96289 h 9.36035 z m 9.41163,-9.45556 -0.43946,4.31396 h -1.65527 l -0.43945,-4.31396 z m -3.83057,0 -0.43945,4.31396 h -1.65528 l -0.43945,-4.31396 z m 14.73633,7.70507 q 0,0.84961 -0.32227,1.58203 -0.31494,0.7251 -0.92285,1.24512 -0.67383,0.55664 -1.55273,0.82764 -0.87159,0.26367 -1.99219,0.26367 -1.31104,-0.007 -2.21924,-0.2124 -0.90088,-0.19776 -1.47217,-0.44678 v -2.40967 h 0.30762 q 0.6665,0.39551 1.43555,0.65918 0.76904,0.26367 1.53076,0.26367 0.46142,0 0.99609,-0.10253 0.54199,-0.10987 0.85694,-0.38819 0.24902,-0.22705 0.37353,-0.46142 0.13184,-0.23438 0.13184,-0.7251 0,-0.38086 -0.17578,-0.65186 -0.16846,-0.27832 -0.43946,-0.44677 -0.39551,-0.2417 -0.95215,-0.31495 -0.55664,-0.0806 -1.01074,-0.0806 -0.65918,0 -1.26709,0.11719 -0.60058,0.10986 -1.05469,0.21972 h -0.32226 v -6.15234 h 7.75635 v 2.0874 h -5.11231 v 1.77979 q 0.22705,-0.0147 0.57129,-0.022 0.35156,-0.0147 0.61523,-0.0147 0.90088,0 1.60401,0.17579 0.71045,0.16845 1.22314,0.47607 0.66651,0.40283 1.04004,1.06934 0.37354,0.65918 0.37354,1.66259 z m 10.82519,-1.76513 q 0,1.37695 -0.24902,2.46826 -0.24902,1.08398 -0.77637,1.77978 -0.54199,0.71045 -1.3916,1.07666 -0.84961,0.35889 -2.09473,0.35889 -1.22314,0 -2.0874,-0.36621 -0.86426,-0.36621 -1.39892,-1.08398 -0.542,-0.71778 -0.7837,-1.77979 -0.24169,-1.06934 -0.24169,-2.44629 0,-1.4209 0.24902,-2.46826 0.24902,-1.04736 0.79101,-1.77246 0.542,-0.71777 1.40625,-1.07666 0.86426,-0.35889 2.06543,-0.35889 1.25245,0 2.10205,0.37354 0.84961,0.36621 1.39161,1.09863 0.53466,0.71777 0.77636,1.77246 0.2417,1.04736 0.2417,2.42432 z m -2.83447,0 q 0,-1.97754 -0.38818,-2.8125 -0.38819,-0.84229 -1.28907,-0.84229 -0.90087,0 -1.28906,0.84229 -0.38818,0.83496 -0.38818,2.82715 0,1.94091 0.39551,2.79785 0.3955,0.85693 1.28173,0.85693 0.88623,0 1.28174,-0.85693 0.39551,-0.85694 0.39551,-2.8125 z m 11.24268,-5.93994 -0.43946,4.31396 h -1.65527 l -0.43945,-4.31396 z m -3.83057,0 -0.43945,4.31396 h -1.65528 l -0.43945,-4.31396 z m 17.38769,5.68359 h -0.23437 q -0.16846,-0.0586 -0.54199,-0.0879 -0.37354,-0.0293 -0.62256,-0.0293 -0.56397,0 -0.99609,0.0732 -0.43213,0.0733 -0.93018,0.24903 V 325 h -2.63672 v -8.2251 h 2.63672 v 1.2085 q 0.87158,-0.74707 1.51611,-0.98877 0.64453,-0.24902 1.18653,-0.24902 0.13916,0 0.31494,0.007 0.17578,0.007 0.30761,0.022 z m 11.43311,-0.0806 h -9.36035 v -1.96289 h 9.36035 z m 0,3.85254 h -9.36035 v -1.96289 h 9.36035 z m 9.41162,-9.45556 -0.43945,4.31396 h -1.65528 l -0.43945,-4.31396 z m -3.83057,0 -0.43945,4.31396 h -1.65527 l -0.43945,-4.31396 z m 13.90137,6.28418 q 0.35889,0.30761 0.57129,0.71777 0.2124,0.41015 0.2124,1.09131 0,0.76904 -0.30761,1.43554 -0.3003,0.66651 -0.93018,1.14258 -0.61523,0.46143 -1.45019,0.71045 -0.82764,0.2417 -2.01416,0.2417 -1.35499,0 -2.32911,-0.2124 -0.96679,-0.2124 -1.5747,-0.47608 v -2.39502 h 0.28564 q 0.62988,0.38086 1.50147,0.65918 0.8789,0.27832 1.604,0.27832 0.4248,0 0.92285,-0.0659 0.49805,-0.0732 0.84229,-0.30762 0.27099,-0.18311 0.43213,-0.43945 0.16113,-0.26368 0.16113,-0.7544 0,-0.47607 -0.21973,-0.73242 -0.21972,-0.26367 -0.57861,-0.37354 -0.35889,-0.11718 -0.86426,-0.12451 -0.50537,-0.0147 -0.9375,-0.0147 h -0.60059 v -1.94824 h 0.62256 q 0.57129,0 1.01075,-0.0366 0.43945,-0.0366 0.74707,-0.16846 0.32226,-0.13916 0.48339,-0.36621 0.16114,-0.23437 0.16114,-0.68115 0,-0.32959 -0.16846,-0.52734 -0.16846,-0.20508 -0.4248,-0.32227 -0.28565,-0.13183 -0.67383,-0.17578 -0.38819,-0.0439 -0.66651,-0.0439 -0.68847,0 -1.49414,0.24169 -0.80566,0.23438 -1.56006,0.68116 h -0.27099 v -2.36573 q 0.60058,-0.2417 1.6333,-0.46142 1.03271,-0.22705 2.09473,-0.22705 1.03271,0 1.80908,0.1831 0.77636,0.17578 1.28174,0.47608 0.60058,0.35888 0.89355,0.87158 0.29297,0.51269 0.29297,1.20117 0,0.9082 -0.56397,1.62598 -0.56396,0.71045 -1.48681,0.9082 v 0.10254 q 0.37353,0.0513 0.79101,0.20508 0.41748,0.15381 0.76172,0.44678 z m 11.49903,1.42089 q 0,0.84961 -0.32227,1.58203 -0.31494,0.7251 -0.92285,1.24512 -0.67383,0.55664 -1.55274,0.82764 -0.87158,0.26367 -1.99218,0.26367 -1.31104,-0.007 -2.21924,-0.2124 -0.90088,-0.19776 -1.47217,-0.44678 v -2.40967 h 0.30762 q 0.6665,0.39551 1.43554,0.65918 0.76905,0.26367 1.53077,0.26367 0.46142,0 0.99609,-0.10253 0.54199,-0.10987 0.85693,-0.38819 0.24903,-0.22705 0.37354,-0.46142 0.13183,-0.23438 0.13183,-0.7251 0,-0.38086 -0.17578,-0.65186 -0.16845,-0.27832 -0.43945,-0.44677 -0.39551,-0.2417 -0.95215,-0.31495 -0.55664,-0.0806 -1.01074,-0.0806 -0.65918,0 -1.26709,0.11719 -0.60059,0.10986 -1.05469,0.21972 h -0.32226 v -6.15234 h 7.75634 v 2.0874 h -5.1123 v 1.77979 q 0.22705,-0.0147 0.57129,-0.022 0.35156,-0.0147 0.61523,-0.0147 0.90088,0 1.60401,0.17579 0.71045,0.16845 1.22314,0.47607 0.66651,0.40283 1.04004,1.06934 0.37354,0.65918 0.37354,1.66259 z m 8.56933,-7.70507 -0.43945,4.31396 h -1.65528 l -0.43945,-4.31396 z m -3.83056,0 -0.43946,4.31396 h -1.65527 l -0.43945,-4.31396 z m 16.75781,1.93359 h -0.19776 q -0.17578,-0.0513 -0.46142,-0.11719 -0.27832,-0.0659 -0.60059,-0.0659 -0.77637,0 -1.05469,0.27832 -0.27099,0.27832 -0.27099,1.07666 v 0.0659 h 2.03613 v 1.78711 h -1.94824 V 325 h -2.63672 v -6.43799 h -1.12793 v -1.78711 h 1.12793 v -0.22705 q 0,-1.50879 0.79834,-2.26318 0.80566,-0.7544 2.43164,-0.7544 0.58594,0 1.06201,0.044 0.47608,0.0366 0.84229,0.10254 z M 509.83398,325 h -2.63671 v -8.2251 h 2.63671 z m 0.0733,-9.39697 h -2.78321 v -1.99951 h 2.78321 z M 514.96094,325 h -2.63672 v -11.39648 h 2.63672 z m 5.12695,0 h -2.63672 v -11.39648 h 2.63672 z m 12.4292,-5.79346 h -9.36035 v -1.96289 h 9.36035 z m 0,3.85254 h -9.36035 v -1.96289 h 9.36035 z m 9.41162,-9.45556 -0.43945,4.31396 h -1.65528 l -0.43945,-4.31396 z m -3.83057,0 -0.43945,4.31396 h -1.65527 l -0.43946,-4.31396 z m 12.26075,5.68359 h -0.23438 q -0.16846,-0.0586 -0.54199,-0.0879 -0.37354,-0.0293 -0.62256,-0.0293 -0.56396,0 -0.99609,0.0732 -0.43213,0.0733 -0.93018,0.24903 V 325 h -2.63672 v -8.2251 h 2.63672 v 1.2085 q 0.87158,-0.74707 1.51611,-0.98877 0.64454,-0.24902 1.18653,-0.24902 0.13916,0 0.31494,0.007 0.17578,0.007 0.30762,0.022 z m 9.59472,2.0874 h -6.03515 q 0.0586,0.9668 0.73242,1.47949 0.68115,0.5127 1.99951,0.5127 0.83496,0 1.61865,-0.30029 0.78369,-0.3003 1.2378,-0.64454 h 0.29296 v 2.1167 q -0.89355,0.35889 -1.68457,0.52002 -0.79101,0.16114 -1.75048,0.16114 -2.47559,0 -3.79395,-1.11328 -1.31836,-1.11329 -1.31836,-3.17139 0,-2.03613 1.24512,-3.22266 1.25244,-1.19385 3.42773,-1.19385 2.00684,0 3.01758,1.01807 1.01074,1.01074 1.01074,2.91504 z m -2.62207,-1.54541 q -0.022,-0.82764 -0.41015,-1.24512 -0.38819,-0.41748 -1.2085,-0.41748 -0.76172,0 -1.25244,0.39551 -0.49072,0.39551 -0.54932,1.26709 z M 569.81201,325 h -2.63672 v -0.85693 q -0.68115,0.55664 -1.27441,0.82031 -0.59326,0.26367 -1.36963,0.26367 -1.50146,0 -2.40234,-1.15723 -0.90088,-1.15722 -0.90088,-3.12011 0,-1.04737 0.30029,-1.85303 0.30762,-0.81299 0.83496,-1.3916 0.49805,-0.54932 1.2085,-0.84961 0.71045,-0.30762 1.4209,-0.30762 0.73974,0 1.20849,0.16113 0.47608,0.15381 0.97412,0.39551 v -3.50097 h 2.63672 z m -2.63672,-2.27051 v -4.03564 q -0.27832,-0.11719 -0.58593,-0.16846 -0.30762,-0.0513 -0.56397,-0.0513 -1.04004,0 -1.56006,0.65186 -0.52002,0.64453 -0.52002,1.79443 0,1.2085 0.41748,1.75781 0.41748,0.54199 1.34033,0.54199 0.35889,0 0.76172,-0.13183 0.40284,-0.13916 0.71045,-0.35889 z m 11.46973,-9.12597 -0.43945,4.31396 h -1.65528 l -0.43945,-4.31396 z m -3.83057,0 -0.43945,4.31396 h -1.65527 l -0.43946,-4.31396 z m 19.13819,0 -5.80811,13.76953 H 585.896 l 5.78613,-13.76953 z m 12.89795,7.38281 -9.78516,4.06494 v -2.10205 l 6.84814,-2.79785 -6.84814,-2.79785 v -2.10206 l 9.78516,4.06495 z"
     id="text6"
     style="fill:#ffffff"
     aria-label="&lt;circle cx=&quot;50&quot; cy=&quot;50&quot; r=&quot;35&quot; fill=&quot;red&quot; /&gt;" />
  <path
     d="m 231.2793,350.05127 -9.78516,-4.06494 v -1.66992 l 9.78516,-4.06495 v 2.10206 l -6.84815,2.80517 6.84815,2.79053 z m 7.2583,0.16846 q -1.07666,0 -1.97022,-0.25635 -0.88623,-0.25635 -1.54541,-0.79102 -0.65185,-0.53466 -1.01074,-1.34765 -0.35889,-0.81299 -0.35889,-1.9043 0,-1.1499 0.38086,-1.98486 0.38819,-0.83496 1.07666,-1.38428 0.66651,-0.52002 1.53809,-0.76172 0.87158,-0.2417 1.80908,-0.2417 0.84229,0 1.55274,0.18311 0.71044,0.1831 1.32568,0.47607 v 2.24854 h -0.37354 q -0.1538,-0.13184 -0.37353,-0.30762 -0.2124,-0.17578 -0.52734,-0.34424 -0.3003,-0.16113 -0.65918,-0.26367 -0.35889,-0.10986 -0.83497,-0.10986 -1.05468,0 -1.62597,0.67382 -0.56397,0.66651 -0.56397,1.81641 0,1.18652 0.57862,1.80176 0.58593,0.61523 1.65527,0.61523 0.49805,0 0.89355,-0.10986 0.40284,-0.11719 0.66651,-0.271 0.24902,-0.14648 0.43945,-0.30761 0.19043,-0.16114 0.35156,-0.31495 h 0.37354 v 2.24854 q -0.62256,0.29297 -1.30371,0.46143 -0.67383,0.17578 -1.49414,0.17578 z M 245.71533,350 h -2.63672 v -8.2251 h 2.63672 z m 0.0732,-9.39697 h -2.7832 v -1.99951 h 2.7832 z m 8.37891,3.68408 h -0.23437 q -0.16846,-0.0586 -0.542,-0.0879 -0.37353,-0.0293 -0.62256,-0.0293 -0.56396,0 -0.99609,0.0732 -0.43213,0.0733 -0.93017,0.24903 V 350 h -2.63672 v -8.2251 h 2.63672 v 1.2085 q 0.87158,-0.74707 1.51611,-0.98877 0.64453,-0.24902 1.18652,-0.24902 0.13916,0 0.31494,0.007 0.17578,0.007 0.30762,0.022 z m 5.77881,5.93262 q -1.07666,0 -1.97022,-0.25635 -0.88623,-0.25635 -1.54541,-0.79102 -0.65185,-0.53466 -1.01074,-1.34765 -0.35888,-0.81299 -0.35888,-1.9043 0,-1.1499 0.38085,-1.98486 0.38819,-0.83496 1.07666,-1.38428 0.66651,-0.52002 1.53809,-0.76172 0.87158,-0.2417 1.80908,-0.2417 0.84229,0 1.55274,0.18311 0.71045,0.1831 1.32568,0.47607 v 2.24854 h -0.37353 q -0.15381,-0.13184 -0.37354,-0.30762 -0.2124,-0.17578 -0.52734,-0.34424 -0.3003,-0.16113 -0.65918,-0.26367 -0.35889,-0.10986 -0.83496,-0.10986 -1.05469,0 -1.62598,0.67382 -0.56397,0.66651 -0.56397,1.81641 0,1.18652 0.57862,1.80176 0.58594,0.61523 1.65527,0.61523 0.49805,0 0.89356,-0.10986 0.40283,-0.11719 0.6665,-0.271 0.24902,-0.14648 0.43945,-0.30761 0.19043,-0.16114 0.35157,-0.31495 h 0.37353 v 2.24854 q -0.62256,0.29297 -1.30371,0.46143 -0.67383,0.17578 -1.49414,0.17578 z M 267.12402,350 h -2.63672 v -11.39648 h 2.63672 z m 10.59082,-3.62549 h -6.03515 q 0.0586,0.9668 0.73242,1.47949 0.68115,0.5127 1.99951,0.5127 0.83496,0 1.61865,-0.30029 0.78369,-0.3003 1.2378,-0.64454 h 0.29297 v 2.1167 q -0.89356,0.35889 -1.68458,0.52002 -0.79101,0.16114 -1.75048,0.16114 -2.47559,0 -3.79395,-1.11328 -1.31836,-1.11329 -1.31836,-3.17139 0,-2.03613 1.24512,-3.22266 1.25244,-1.19385 3.42773,-1.19385 2.00684,0 3.01758,1.01807 1.01074,1.01074 1.01074,2.91504 z m -2.62207,-1.54541 q -0.022,-0.82764 -0.41015,-1.24512 -0.38819,-0.41748 -1.2085,-0.41748 -0.76172,0 -1.25244,0.39551 -0.49072,0.39551 -0.54932,1.26709 z m 13.89405,5.39063 q -1.07666,0 -1.97022,-0.25635 -0.88623,-0.25635 -1.54541,-0.79102 -0.65185,-0.53466 -1.01074,-1.34765 -0.35889,-0.81299 -0.35889,-1.9043 0,-1.1499 0.38086,-1.98486 0.38819,-0.83496 1.07666,-1.38428 0.66651,-0.52002 1.53809,-0.76172 0.87158,-0.2417 1.80908,-0.2417 0.84229,0 1.55273,0.18311 0.71045,0.1831 1.32569,0.47607 v 2.24854 h -0.37354 q -0.15381,-0.13184 -0.37353,-0.30762 -0.2124,-0.17578 -0.52735,-0.34424 -0.30029,-0.16113 -0.65918,-0.26367 -0.35888,-0.10986 -0.83496,-0.10986 -1.05468,0 -1.62597,0.67382 -0.56397,0.66651 -0.56397,1.81641 0,1.18652 0.57862,1.80176 0.58593,0.61523 1.65527,0.61523 0.49805,0 0.89355,-0.10986 0.40284,-0.11719 0.66651,-0.271 0.24902,-0.14648 0.43945,-0.30761 0.19043,-0.16114 0.35156,-0.31495 h 0.37354 v 2.24854 q -0.62256,0.29297 -1.30371,0.46143 -0.67383,0.17578 -1.49414,0.17578 z M 302.12646,350 h -3.07617 L 297.29248,347.53906 295.49072,350 h -3.01758 l 3.24463,-4.10889 -3.19336,-4.11621 h 3.07618 l 1.72851,2.41699 1.73584,-2.41699 h 3.0249 l -3.20068,4.0503 z m 11.37452,-5.79346 h -9.36036 v -1.96289 h 9.36036 z m 0,3.85254 h -9.36036 v -1.96289 h 9.36036 z m 9.41162,-9.45556 -0.43946,4.31396 h -1.65527 l -0.43945,-4.31396 z m -3.83057,0 -0.43945,4.31396 h -1.65528 l -0.43945,-4.31396 z M 333.36426,350 h -7.28028 v -1.9043 h 2.29981 v -5.76416 h -2.29981 v -1.77978 q 0.52735,0 1.01075,-0.0586 0.48339,-0.0659 0.80566,-0.21972 0.38086,-0.18311 0.57129,-0.47608 0.19043,-0.29297 0.21973,-0.73242 h 2.42431 v 9.03076 h 2.24854 z m 11.27929,-5.45654 q 0,1.37695 -0.24902,2.46826 -0.24902,1.08398 -0.77637,1.77978 -0.54199,0.71045 -1.3916,1.07666 -0.84961,0.35889 -2.09472,0.35889 -1.22315,0 -2.08741,-0.36621 -0.86425,-0.36621 -1.39892,-1.08398 -0.54199,-0.71778 -0.78369,-1.77979 -0.2417,-1.06934 -0.2417,-2.44629 0,-1.4209 0.24902,-2.46826 0.24902,-1.04736 0.79102,-1.77246 0.54199,-0.71777 1.40625,-1.07666 0.86425,-0.35889 2.06543,-0.35889 1.25244,0 2.10205,0.37354 0.84961,0.36621 1.3916,1.09863 0.53467,0.71777 0.77637,1.77246 0.24169,1.04736 0.24169,2.42432 z m -2.83447,0 q 0,-1.97754 -0.38818,-2.8125 -0.38819,-0.84229 -1.28906,-0.84229 -0.90088,0 -1.28907,0.84229 -0.38818,0.83496 -0.38818,2.82715 0,1.94091 0.39551,2.79785 0.39551,0.85693 1.28174,0.85693 0.88623,0 1.28173,-0.85693 0.39551,-0.85694 0.39551,-2.8125 z m 13.49854,0 q 0,1.37695 -0.24903,2.46826 -0.24902,1.08398 -0.77636,1.77978 -0.542,0.71045 -1.39161,1.07666 -0.8496,0.35889 -2.09472,0.35889 -1.22315,0 -2.0874,-0.36621 -0.86426,-0.36621 -1.39893,-1.08398 -0.54199,-0.71778 -0.78369,-1.77979 -0.2417,-1.06934 -0.2417,-2.44629 0,-1.4209 0.24902,-2.46826 0.24903,-1.04736 0.79102,-1.77246 0.54199,-0.71777 1.40625,-1.07666 0.86426,-0.35889 2.06543,-0.35889 1.25244,0 2.10205,0.37354 0.84961,0.36621 1.3916,1.09863 0.53467,0.71777 0.77637,1.77246 0.2417,1.04736 0.2417,2.42432 z m -2.83448,0 q 0,-1.97754 -0.38818,-2.8125 -0.38818,-0.84229 -1.28906,-0.84229 -0.90088,0 -1.28906,0.84229 -0.38819,0.83496 -0.38819,2.82715 0,1.94091 0.39551,2.79785 0.39551,0.85693 1.28174,0.85693 0.88623,0 1.28174,-0.85693 0.3955,-0.85694 0.3955,-2.8125 z m 11.24268,-5.93994 -0.43945,4.31396 h -1.65528 l -0.43945,-4.31396 z m -3.83057,0 -0.43945,4.31396 h -1.65527 l -0.43946,-4.31396 z m 15.71045,11.61621 q -1.07666,0 -1.97021,-0.25635 -0.88623,-0.25635 -1.54541,-0.79102 -0.65186,-0.53466 -1.01074,-1.34765 -0.35889,-0.81299 -0.35889,-1.9043 0,-1.1499 0.38086,-1.98486 0.38818,-0.83496 1.07666,-1.38428 0.6665,-0.52002 1.53808,-0.76172 0.87159,-0.2417 1.80909,-0.2417 0.84228,0 1.55273,0.18311 0.71045,0.1831 1.32568,0.47607 v 2.24854 h -0.37353 q -0.15381,-0.13184 -0.37354,-0.30762 -0.2124,-0.17578 -0.52734,-0.34424 -0.30029,-0.16113 -0.65918,-0.26367 -0.35889,-0.10986 -0.83496,-0.10986 -1.05469,0 -1.62598,0.67382 -0.56396,0.66651 -0.56396,1.81641 0,1.18652 0.57861,1.80176 0.58594,0.61523 1.65528,0.61523 0.49804,0 0.89355,-0.10986 0.40283,-0.11719 0.6665,-0.271 0.24903,-0.14648 0.43946,-0.30761 0.19043,-0.16114 0.35156,-0.31495 h 0.37353 v 2.24854 q -0.62255,0.29297 -1.30371,0.46143 -0.67382,0.17578 -1.49414,0.17578 z m 8.2544,-3.12744 1.875,-5.31739 h 2.70996 l -4.57031,11.24268 h -2.85645 l 1.30371,-3.07617 -3.20068,-8.16651 h 2.76855 z m 15.98877,-2.88575 h -9.36035 v -1.96289 h 9.36035 z m 0,3.85254 h -9.36035 v -1.96289 h 9.36035 z m 9.41162,-9.45556 -0.43945,4.31396 h -1.65528 l -0.43945,-4.31396 z m -3.83057,0 -0.43945,4.31396 h -1.65527 l -0.43946,-4.31396 z m 14.73633,7.70507 q 0,0.84961 -0.32227,1.58203 -0.31494,0.7251 -0.92285,1.24512 -0.67383,0.55664 -1.55273,0.82764 -0.87158,0.26367 -1.99219,0.26367 -1.31103,-0.007 -2.21924,-0.2124 -0.90088,-0.19776 -1.47217,-0.44678 v -2.40967 h 0.30762 q 0.66651,0.39551 1.43555,0.65918 0.76904,0.26367 1.53076,0.26367 0.46143,0 0.99609,-0.10253 0.542,-0.10987 0.85694,-0.38819 0.24902,-0.22705 0.37353,-0.46142 0.13184,-0.23438 0.13184,-0.7251 0,-0.38086 -0.17578,-0.65186 -0.16846,-0.27832 -0.43946,-0.44677 -0.3955,-0.2417 -0.95214,-0.31495 -0.55664,-0.0806 -1.01075,-0.0806 -0.65918,0 -1.26709,0.11719 -0.60058,0.10986 -1.05468,0.21972 h -0.32227 v -6.15234 h 7.75635 v 2.0874 H 414.729 v 1.77979 q 0.22705,-0.0147 0.57129,-0.022 0.35157,-0.0147 0.61524,-0.0147 0.90088,0 1.604,0.17579 0.71045,0.16845 1.22315,0.47607 0.6665,0.40283 1.04003,1.06934 0.37354,0.65918 0.37354,1.66259 z m 10.8252,-1.76513 q 0,1.37695 -0.24903,2.46826 -0.24902,1.08398 -0.77637,1.77978 -0.54199,0.71045 -1.3916,1.07666 -0.84961,0.35889 -2.09472,0.35889 -1.22315,0 -2.08741,-0.36621 -0.86425,-0.36621 -1.39892,-1.08398 -0.54199,-0.71778 -0.78369,-1.77979 -0.2417,-1.06934 -0.2417,-2.44629 0,-1.4209 0.24902,-2.46826 0.24902,-1.04736 0.79102,-1.77246 0.54199,-0.71777 1.40625,-1.07666 0.86425,-0.35889 2.06543,-0.35889 1.25244,0 2.10205,0.37354 0.84961,0.36621 1.3916,1.09863 0.53467,0.71777 0.77637,1.77246 0.2417,1.04736 0.2417,2.42432 z m -2.83448,0 q 0,-1.97754 -0.38818,-2.8125 -0.38818,-0.84229 -1.28906,-0.84229 -0.90088,0 -1.28907,0.84229 -0.38818,0.83496 -0.38818,2.82715 0,1.94091 0.39551,2.79785 0.39551,0.85693 1.28174,0.85693 0.88623,0 1.28173,-0.85693 0.39551,-0.85694 0.39551,-2.8125 z m 11.24268,-5.93994 -0.43945,4.31396 h -1.65528 l -0.43945,-4.31396 z m -3.83057,0 -0.43945,4.31396 h -1.65527 l -0.43946,-4.31396 z m 17.3877,5.68359 h -0.23438 q -0.16845,-0.0586 -0.54199,-0.0879 -0.37354,-0.0293 -0.62256,-0.0293 -0.56396,0 -0.99609,0.0732 -0.43213,0.0733 -0.93018,0.24903 V 350 h -2.63672 v -8.2251 h 2.63672 v 1.2085 q 0.87158,-0.74707 1.51612,-0.98877 0.64453,-0.24902 1.18652,-0.24902 0.13916,0 0.31494,0.007 0.17578,0.007 0.30762,0.022 z m 11.4331,-0.0806 h -9.36035 v -1.96289 h 9.36035 z m 0,3.85254 h -9.36035 v -1.96289 h 9.36035 z m 9.41162,-9.45556 -0.43945,4.31396 h -1.65527 l -0.43946,-4.31396 z m -3.83056,0 -0.43946,4.31396 h -1.65527 l -0.43945,-4.31396 z m 13.90136,6.28418 q 0.35889,0.30761 0.57129,0.71777 0.21241,0.41015 0.21241,1.09131 0,0.76904 -0.30762,1.43554 -0.30029,0.66651 -0.93018,1.14258 -0.61523,0.46143 -1.45019,0.71045 -0.82764,0.2417 -2.01416,0.2417 -1.35498,0 -2.3291,-0.2124 -0.9668,-0.2124 -1.57471,-0.47608 v -2.39502 h 0.28564 q 0.62989,0.38086 1.50147,0.65918 0.8789,0.27832 1.604,0.27832 0.42481,0 0.92285,-0.0659 0.49805,-0.0732 0.84229,-0.30762 0.271,-0.18311 0.43213,-0.43945 0.16113,-0.26368 0.16113,-0.7544 0,-0.47607 -0.21973,-0.73242 -0.21972,-0.26367 -0.57861,-0.37354 -0.35889,-0.11718 -0.86426,-0.12451 -0.50537,-0.0147 -0.9375,-0.0147 h -0.60058 v -1.94824 h 0.62256 q 0.57128,0 1.01074,-0.0366 0.43945,-0.0366 0.74707,-0.16846 0.32226,-0.13916 0.4834,-0.36621 0.16113,-0.23437 0.16113,-0.68115 0,-0.32959 -0.16846,-0.52734 -0.16845,-0.20508 -0.4248,-0.32227 -0.28565,-0.13183 -0.67383,-0.17578 -0.38818,-0.0439 -0.6665,-0.0439 -0.68848,0 -1.49414,0.24169 -0.80567,0.23438 -1.56006,0.68116 h -0.271 v -2.36573 q 0.60059,-0.2417 1.6333,-0.46142 1.03272,-0.22705 2.09473,-0.22705 1.03271,0 1.80908,0.1831 0.77637,0.17578 1.28174,0.47608 0.60058,0.35888 0.89355,0.87158 0.29297,0.51269 0.29297,1.20117 0,0.9082 -0.56396,1.62598 -0.56397,0.71045 -1.48682,0.9082 v 0.10254 q 0.37354,0.0513 0.79102,0.20508 0.41748,0.15381 0.76171,0.44678 z m 11.49903,1.42089 q 0,0.84961 -0.32227,1.58203 -0.31494,0.7251 -0.92285,1.24512 -0.67383,0.55664 -1.55273,0.82764 -0.87159,0.26367 -1.99219,0.26367 -1.31104,-0.007 -2.21924,-0.2124 -0.90088,-0.19776 -1.47217,-0.44678 v -2.40967 h 0.30762 q 0.6665,0.39551 1.43555,0.65918 0.76904,0.26367 1.53076,0.26367 0.46142,0 0.99609,-0.10253 0.54199,-0.10987 0.85694,-0.38819 0.24902,-0.22705 0.37353,-0.46142 0.13184,-0.23438 0.13184,-0.7251 0,-0.38086 -0.17578,-0.65186 -0.16846,-0.27832 -0.43946,-0.44677 -0.39551,-0.2417 -0.95215,-0.31495 -0.55664,-0.0806 -1.01074,-0.0806 -0.65918,0 -1.26709,0.11719 -0.60058,0.10986 -1.05469,0.21972 h -0.32226 v -6.15234 h 7.75635 v 2.0874 h -5.11231 v 1.77979 q 0.22705,-0.0147 0.57129,-0.022 0.35156,-0.0147 0.61524,-0.0147 0.90087,0 1.604,0.17579 0.71045,0.16845 1.22314,0.47607 0.66651,0.40283 1.04004,1.06934 0.37354,0.65918 0.37354,1.66259 z m 8.56933,-7.70507 -0.43945,4.31396 h -1.65527 l -0.43946,-4.31396 z m -3.83056,0 -0.43946,4.31396 h -1.65527 l -0.43945,-4.31396 z m 16.75781,1.93359 h -0.19775 q -0.17579,-0.0513 -0.46143,-0.11719 -0.27832,-0.0659 -0.60059,-0.0659 -0.77636,0 -1.05468,0.27832 -0.271,0.27832 -0.271,1.07666 v 0.0659 h 2.03613 v 1.78711 h -1.94824 V 350 h -2.63672 v -6.43799 h -1.12793 v -1.78711 h 1.12793 v -0.22705 q 0,-1.50879 0.79834,-2.26318 0.80567,-0.7544 2.43164,-0.7544 0.58594,0 1.06201,0.044 0.47608,0.0366 0.84229,0.10254 z M 520.49805,350 h -2.63672 v -8.2251 h 2.63672 z m 0.0732,-9.39697 h -2.7832 v -1.99951 h 2.7832 z M 525.625,350 h -2.63672 v -11.39648 h 2.63672 z m 5.12695,0 h -2.63672 v -11.39648 h 2.63672 z m 12.4292,-5.79346 h -9.36035 v -1.96289 h 9.36035 z m 0,3.85254 h -9.36035 v -1.96289 h 9.36035 z m 9.41162,-9.45556 -0.43945,4.31396 h -1.65527 l -0.43946,-4.31396 z m -3.83056,0 -0.43946,4.31396 h -1.65527 l -0.43945,-4.31396 z m 12.26074,5.68359 h -0.23438 q -0.16845,-0.0586 -0.54199,-0.0879 -0.37353,-0.0293 -0.62256,-0.0293 -0.56396,0 -0.99609,0.0732 -0.43213,0.0733 -0.93018,0.24903 V 350 h -2.63671 v -8.2251 h 2.63671 v 1.2085 q 0.87159,-0.74707 1.51612,-0.98877 0.64453,-0.24902 1.18652,-0.24902 0.13916,0 0.31494,0.007 0.17578,0.007 0.30762,0.022 z m 9.59473,2.0874 h -6.03516 q 0.0586,0.9668 0.73242,1.47949 0.68115,0.5127 1.99951,0.5127 0.83496,0 1.61866,-0.30029 0.78369,-0.3003 1.23779,-0.64454 h 0.29297 v 2.1167 q -0.89356,0.35889 -1.68457,0.52002 -0.79102,0.16114 -1.75049,0.16114 -2.47559,0 -3.79395,-1.11328 -1.31836,-1.11329 -1.31836,-3.17139 0,-2.03613 1.24512,-3.22266 1.25244,-1.19385 3.42774,-1.19385 2.00683,0 3.01757,1.01807 1.01075,1.01074 1.01075,2.91504 z m -2.62207,-1.54541 q -0.022,-0.82764 -0.41016,-1.24512 -0.38818,-0.41748 -1.2085,-0.41748 -0.76172,0 -1.25244,0.39551 -0.49072,0.39551 -0.54931,1.26709 z M 580.47607,350 h -2.63671 v -0.85693 q -0.68116,0.55664 -1.27442,0.82031 -0.59326,0.26367 -1.36963,0.26367 -1.50146,0 -2.40234,-1.15723 -0.90088,-1.15722 -0.90088,-3.12011 0,-1.04737 0.30029,-1.85303 0.30762,-0.81299 0.83496,-1.3916 0.49805,-0.54932 1.2085,-0.84961 0.71045,-0.30762 1.4209,-0.30762 0.73974,0 1.20849,0.16113 0.47608,0.15381 0.97413,0.39551 v -3.50097 h 2.63671 z m -2.63671,-2.27051 v -4.03564 q -0.27832,-0.11719 -0.58594,-0.16846 -0.30762,-0.0513 -0.56397,-0.0513 -1.04004,0 -1.56006,0.65186 -0.52002,0.64453 -0.52002,1.79443 0,1.2085 0.41749,1.75781 0.41748,0.54199 1.34033,0.54199 0.35888,0 0.76172,-0.13183 0.40283,-0.13916 0.71045,-0.35889 z m 11.46972,-9.12597 -0.43945,4.31396 h -1.65527 l -0.43946,-4.31396 z m -3.83056,0 -0.43946,4.31396 h -1.65527 l -0.43945,-4.31396 z m 19.13818,0 -5.80811,13.76953 h -2.24853 l 5.78613,-13.76953 z m 12.89795,7.38281 -9.78516,4.06494 v -2.10205 l 6.84815,-2.79785 -6.84815,-2.79785 v -2.10206 l 9.78516,4.06495 z"
     id="text7"
     style="fill:#ffffff"
     aria-label="&lt;circle cx=&quot;100&quot; cy=&quot;50&quot; r=&quot;35&quot; fill=&quot;red&quot; /&gt;" />
  <path
     d="m 211.2793,375.05127 -9.78516,-4.06494 v -1.66992 l 9.78516,-4.06495 v 2.10206 l -6.84815,2.80517 6.84815,2.79053 z m 10.68603,-11.44775 -5.8081,13.76953 h -2.24854 l 5.78613,-13.76953 z m 9.77783,8.78906 q 0,1.27441 -1.14257,2.0581 -1.14258,0.77637 -3.12745,0.77637 -1.09863,0 -1.99218,-0.20508 -0.89356,-0.20508 -1.43555,-0.4541 v -2.16797 h 0.2417 q 0.19775,0.13916 0.4541,0.30762 0.26367,0.16113 0.73975,0.35156 0.41015,0.16846 0.93017,0.29297 0.52002,0.11719 1.11328,0.11719 0.77637,0 1.14991,-0.16846 0.37353,-0.17578 0.37353,-0.51269 0,-0.3003 -0.21973,-0.43213 -0.21972,-0.13916 -0.83496,-0.26367 -0.29296,-0.0659 -0.79834,-0.13917 -0.49804,-0.0806 -0.9082,-0.19042 -1.1206,-0.29297 -1.6626,-0.90821 -0.54199,-0.62256 -0.54199,-1.54541 0,-1.18652 1.12061,-1.97021 1.12793,-0.79102 3.07617,-0.79102 0.92285,0 1.76514,0.19043 0.8496,0.18311 1.32568,0.39551 v 2.08008 h -0.22705 q -0.58594,-0.40283 -1.34033,-0.65186 -0.74707,-0.25635 -1.51612,-0.25635 -0.6372,0 -1.07666,0.17579 -0.43213,0.17578 -0.43213,0.49804 0,0.29297 0.19776,0.44678 0.19775,0.15381 0.93017,0.30762 0.40284,0.0806 0.86426,0.16113 0.46875,0.0732 0.9375,0.19043 1.04004,0.271 1.53809,0.85693 0.49804,0.57862 0.49804,1.4502 z M 241.77734,366.7749 238.60596,375 h -2.98828 l -3.14942,-8.2251 h 2.79053 l 1.9043,5.6543 1.88232,-5.6543 z m 9.46289,7.28028 q 0,1.15722 -0.32959,1.94824 -0.32959,0.79101 -0.92285,1.23779 -0.59326,0.4541 -1.43554,0.65186 -0.83496,0.20507 -1.88965,0.20507 -0.85694,0 -1.6919,-0.10253 -0.82763,-0.10254 -1.43554,-0.24903 v -2.0581 h 0.32226 q 0.4834,0.19043 1.1792,0.34423 0.6958,0.16114 1.24512,0.16114 0.73242,0 1.18652,-0.13916 0.46143,-0.13184 0.70313,-0.38086 0.22705,-0.23438 0.32959,-0.60059 0.10254,-0.36621 0.10254,-0.8789 v -0.15381 q -0.47608,0.38818 -1.05469,0.61523 -0.57862,0.22705 -1.28906,0.22705 -1.72852,0 -2.66602,-1.04004 -0.9375,-1.04004 -0.9375,-3.16406 0,-1.01807 0.28564,-1.75781 0.28565,-0.73975 0.80567,-1.28906 0.4834,-0.5127 1.18652,-0.79834 0.71045,-0.28565 1.4502,-0.28565 0.6665,0 1.20849,0.16113 0.54932,0.15381 0.9961,0.43213 l 0.0952,-0.36621 h 2.55615 z m -2.63671,-1.64795 v -3.72803 q -0.22706,-0.0952 -0.55665,-0.14649 -0.32958,-0.0586 -0.59326,-0.0586 -1.04004,0 -1.56006,0.60059 -0.52001,0.59326 -0.52001,1.66259 0,1.18653 0.43945,1.65528 0.44678,0.46875 1.31836,0.46875 0.39551,0 0.77636,-0.12451 0.38086,-0.12452 0.69581,-0.32959 z m 15.3955,-1.4209 -9.78515,4.06494 v -2.10205 l 6.84814,-2.79785 -6.84814,-2.79785 v -2.10206 l 9.78515,4.06495 z"
     id="text8"
     style="fill:#ffffff"
     aria-label="&lt;/svg&gt;" />
</svg>
