<?xml version="1.0" encoding="UTF-8" standalone="no"?>
<svg
   style="display: block; margin: auto;"
   width="800"
   height="729"
   version="1.1"
   id="svg10"
   sodipodi:docname="i_love_mommy_paths_v1.3.svg"
   inkscape:version="1.4 (86a8ad7, 2024-10-11)"
   xmlns:inkscape="http://www.inkscape.org/namespaces/inkscape"
   xmlns:sodipodi="http://sodipodi.sourceforge.net/DTD/sodipodi-0.dtd"
   xmlns="http://www.w3.org/2000/svg"
   xmlns:svg="http://www.w3.org/2000/svg">
  <defs
     id="defs10" />
  <sodipodi:namedview
     id="namedview10"
     pagecolor="#ffffff"
     bordercolor="#000000"
     borderopacity="0.25"
     inkscape:showpageshadow="2"
     inkscape:pageopacity="0.0"
     inkscape:pagecheckerboard="0"
     inkscape:deskcolor="#d1d1d1"
     inkscape:zoom="1.1069959"
     inkscape:cx="399.73048"
     inkscape:cy="364.5"
     inkscape:window-width="1920"
     inkscape:window-height="1009"
     inkscape:window-x="1912"
     inkscape:window-y="-8"
     inkscape:window-maximized="1"
     inkscape:current-layer="svg10" />
  <polygon
     points="400,585 600,385 400,185 200,385"
     fill="black"
     id="polygon1" />
  <circle
     cx="300"
     cy="285"
     r="141"
     fill="black"
     id="circle1" />
  <circle
     cx="500"
     cy="285"
     r="141"
     fill="black"
     id="circle2" />
  <path
     d="m 430.65625,114.48047 h -61.3125 V 95.917969 H 386.5 V 28.347656 H 369.34375 V 9.7851563 h 61.3125 V 28.347656 H 413.5 v 67.570313 h 17.15625 z"
     id="text9"
     aria-label="I" />
  <path
     d="M 180.20312,724.48047 H 153.34375 V 654.37891 L 133.9375,699.87109 H 115.30469 L 95.898437,654.37891 v 70.10156 H 70.445312 V 619.78516 h 31.359378 l 23.55469,52.52343 23.48437,-52.52343 h 31.35937 z m 106.03125,-39.44531 q 0,19.47656 -11.39062,30.72656 -11.32031,11.17969 -31.85156,11.17969 -20.53125,0 -31.92188,-11.17969 -11.32031,-11.25 -11.32031,-30.72656 0,-19.61719 11.39062,-30.79688 11.46094,-11.17969 31.85157,-11.17969 20.67187,0 31.92187,11.25 11.32031,11.25 11.32031,30.72657 z m -31.14843,19.19531 q 2.46093,-3.02344 3.65625,-7.24219 1.26562,-4.28906 1.26562,-11.8125 0,-6.96094 -1.26562,-11.67187 -1.26563,-4.71094 -3.51563,-7.52344 -2.25,-2.88281 -5.41406,-4.07813 -3.16406,-1.19531 -6.82031,-1.19531 -3.65625,0 -6.53907,0.98438 -2.8125,0.98437 -5.41406,3.9375 -2.32031,2.74218 -3.72656,7.52343 -1.33594,4.78125 -1.33594,12.02344 0,6.46875 1.19531,11.25 1.19532,4.71094 3.51563,7.59375 2.25,2.74219 5.34375,4.00781 3.16406,1.26563 7.17187,1.26563 3.44532,0 6.53907,-1.125 3.16406,-1.19531 5.34375,-3.9375 z m 126.49218,-35.71875 v 55.96875 H 356.125 v -39.44531 q 0,-5.76563 -0.28125,-9.77344 -0.28125,-4.07813 -1.54688,-6.60938 -1.26562,-2.53125 -3.86718,-3.65625 -2.53125,-1.19531 -7.17188,-1.19531 -3.72656,0 -7.24219,1.54688 -3.51562,1.47656 -6.32812,3.16406 v 55.96875 H 304.375 v -78.96094 h 25.3125 v 8.71875 q 6.53906,-5.13281 12.51562,-8.01562 5.97657,-2.88282 13.21875,-2.88282 7.80469,0 13.78125,3.51563 5.97657,3.44531 9.35157,10.19531 7.59375,-6.39844 14.76562,-10.05469 7.17188,-3.65625 14.0625,-3.65625 12.79688,0 19.40625,7.66407 6.67969,7.66406 6.67969,22.07812 v 51.39844 h -25.45313 v -39.44531 q 0,-5.83594 -0.28125,-9.84375 -0.21093,-4.00782 -1.47656,-6.53907 -1.19531,-2.53125 -3.79687,-3.65625 -2.60157,-1.19531 -7.3125,-1.19531 -3.16407,0 -6.1875,1.125 -3.02344,1.05469 -7.38282,3.58594 z m 152.36719,0 v 55.96875 h -25.45312 v -39.44531 q 0,-5.76563 -0.28125,-9.77344 -0.28125,-4.07813 -1.54688,-6.60938 -1.26562,-2.53125 -3.86719,-3.65625 -2.53125,-1.19531 -7.17187,-1.19531 -3.72656,0 -7.24219,1.54688 -3.51562,1.47656 -6.32812,3.16406 v 55.96875 h -25.3125 v -78.96094 h 25.3125 v 8.71875 q 6.53906,-5.13281 12.51562,-8.01562 5.97656,-2.88282 13.21875,-2.88282 7.80469,0 13.78125,3.51563 5.97656,3.44531 9.35156,10.19531 7.59375,-6.39844 14.76563,-10.05469 7.17187,-3.65625 14.0625,-3.65625 12.79687,0 19.40625,7.66407 6.67969,7.66406 6.67969,22.07812 v 51.39844 h -25.45313 v -39.44531 q 0,-5.83594 -0.28125,-9.84375 -0.21094,-4.00782 -1.47656,-6.53907 -1.19531,-2.53125 -3.79688,-3.65625 -2.60156,-1.19531 -7.3125,-1.19531 -3.16406,0 -6.1875,1.125 -3.02343,1.05469 -7.38281,3.58594 z m 110.8125,28.05469 18,-51.04688 h 26.01563 l -43.875,107.92969 h -27.42188 l 12.51563,-29.53125 -30.72657,-78.39844 h 26.57813 z m 85.28906,27.91406 H 703.75 v -27.63281 h 26.29687 z"
     id="text10"
     aria-label="Mommy." />
</svg>
